<svg width="492" height="329" viewBox="0 0 492 329" fill="none" xmlns="http://www.w3.org/2000/svg">
<path d="M384.187 133.33H457.92H477.659L462.434 144.352V166.033C462.434 168.533 460.414 170.56 457.92 170.56H384.187C381.694 170.56 379.673 168.533 379.673 166.033V137.857C379.673 135.357 381.694 133.33 384.187 133.33Z" fill="#F5F5F5"/>
<path d="M388.083 148.656C388.083 148.748 402.18 148.82 419.571 148.82C436.961 148.82 451.059 148.748 451.059 148.656C451.059 148.564 436.961 148.491 419.571 148.491C402.18 148.491 388.083 148.564 388.083 148.656Z" fill="#E0E0E0"/>
<path d="M388.083 156.979C388.083 157.071 402.18 157.143 419.571 157.143C436.961 157.143 451.059 157.071 451.059 156.979C451.059 156.887 436.961 156.814 419.571 156.814C402.18 156.814 388.083 156.893 388.083 156.979Z" fill="#E0E0E0"/>
<path d="M242.221 53.3174H237.846V68.0172H242.221V53.3174Z" fill="#E0E0E0"/>
<path d="M205.683 51.1924H201.308V68.0175H205.683V51.1924Z" fill="#E0E0E0"/>
<path d="M214.82 47.6855H210.444V68.0177H214.82V47.6855Z" fill="#E0E0E0"/>
<path d="M223.952 48.7969H219.577V68.0171H223.952V48.7969Z" fill="#E0E0E0"/>
<path d="M233.083 42.2959H228.708V68.0172H233.083V42.2959Z" fill="#E0E0E0"/>
<path d="M251.353 42.4209H246.978V68.0171H251.353V42.4209Z" fill="#E0E0E0"/>
<path d="M260.492 50.8301H256.116V68.0171H260.492V50.8301Z" fill="#E0E0E0"/>
<path d="M269.622 43.5469H265.247V68.0179H269.622V43.5469Z" fill="#E0E0E0"/>
<path d="M278.761 38.0391H274.385V68.0176H278.761V38.0391Z" fill="#E0E0E0"/>
<path d="M287.891 43.4219H283.517V68.0179H287.891V43.4219Z" fill="#E0E0E0"/>
<path d="M403.151 66.6553L439.329 61.1084C442.361 81.0129 428.526 99.8975 408.682 102.938C388.837 105.977 370.011 92.1002 366.98 72.1957C363.948 52.2912 377.785 33.4066 397.628 30.3666C400.79 29.8797 403.997 29.8138 407.173 30.1692L403.151 66.6553Z" fill="#EBEBEB"/>
<path d="M414.888 30.2881L410.492 58.4176L438.018 53.2326C438.025 53.2261 433.978 37.467 414.888 30.2881Z" fill="#E0E0E0"/>
<path d="M33.7709 134.89C33.6134 124.927 41.5313 116.689 51.4173 116.525C61.3097 116.367 69.4836 124.342 69.641 134.304C69.7984 144.266 61.8804 152.504 51.9945 152.669C42.102 152.827 33.9283 144.852 33.7709 134.89ZM60.2798 134.455C60.2011 129.691 56.298 125.875 51.5681 125.954C46.8384 126.033 43.0533 129.968 43.132 134.732C43.2108 139.496 47.1139 143.312 51.8436 143.233C56.5735 143.161 60.3585 139.219 60.2798 134.455Z" fill="#F5F5F5"/>
<path d="M33.7709 134.89C33.6134 124.928 41.5313 116.69 51.4173 116.525L51.5681 125.955C46.8384 126.033 43.0533 129.968 43.132 134.732C43.2108 139.496 47.1139 143.313 51.8436 143.234L51.9945 152.663C42.102 152.827 33.9283 144.852 33.7709 134.89Z" fill="#E0E0E0"/>
<path d="M49.8101 115.071C61.3819 114.887 70.6118 123.888 70.7954 135.548L59.8469 135.726C59.755 130.153 55.5304 126.639 50.0004 126.731L49.8101 115.071Z" fill="#EBEBEB"/>
<path d="M150.303 198.348H127.5V225.537H150.303V198.348Z" fill="#F5F5F5"/>
<path d="M128.294 196.57H25.2559V227.24H128.294V196.57Z" fill="#E0E0E0"/>
<path d="M150.991 199.15H125.525V196.57H150.991C151.7 196.57 152.277 197.15 152.277 197.861C152.277 198.578 151.7 199.15 150.991 199.15Z" fill="#E0E0E0"/>
<path d="M150.991 227.241H125.525V224.661H150.991C151.7 224.661 152.277 225.24 152.277 225.95C152.277 226.668 151.7 227.241 150.991 227.241Z" fill="#E0E0E0"/>
<path d="M120.192 196.57H108.017V227.24H120.192V196.57Z" fill="#EBEBEB"/>
<path d="M47.2257 196.914H35.0503V227.583H47.2257V196.914Z" fill="#EBEBEB"/>
<path d="M150.303 202.842C150.303 202.914 145.37 202.981 139.282 202.981C133.194 202.981 128.261 202.92 128.261 202.842C128.261 202.769 133.194 202.704 139.282 202.704C145.37 202.704 150.303 202.769 150.303 202.842Z" fill="#E0E0E0"/>
<path d="M150.303 206.921C150.303 206.993 145.37 207.06 139.282 207.06C133.194 207.06 128.261 206.999 128.261 206.921C128.261 206.848 133.194 206.783 139.282 206.783C145.37 206.783 150.303 206.842 150.303 206.921Z" fill="#E0E0E0"/>
<path d="M150.303 211.941C150.303 212.014 145.37 212.079 139.282 212.079C133.194 212.079 128.261 212.02 128.261 211.941C128.261 211.869 133.194 211.803 139.282 211.803C145.37 211.803 150.303 211.863 150.303 211.941Z" fill="#E0E0E0"/>
<path d="M150.303 216.956C150.303 217.029 145.37 217.094 139.282 217.094C133.194 217.094 128.261 217.035 128.261 216.956C128.261 216.884 133.194 216.817 139.282 216.817C145.37 216.824 150.303 216.884 150.303 216.956Z" fill="#E0E0E0"/>
<path d="M150.303 221.976C150.303 222.048 145.37 222.114 139.282 222.114C133.194 222.114 128.261 222.056 128.261 221.976C128.261 221.903 133.194 221.838 139.282 221.838C145.37 221.844 150.303 221.903 150.303 221.976Z" fill="#E0E0E0"/>
<path d="M101.47 209.179H55.1172V214.699H101.47V209.179Z" fill="#EBEBEB"/>
<path d="M150.073 227.846H126.923V244.413H150.073V227.846Z" fill="#FAFAFA"/>
<path d="M127.185 227.24H28.6675V245.006H127.185V227.24Z" fill="#F5F5F5"/>
<path d="M126.464 228.444H151.346C151.674 228.444 151.943 228.175 151.943 227.846C151.943 227.517 151.674 227.247 151.346 227.247H126.464V228.444Z" fill="#F5F5F5"/>
<path d="M126.464 245.012H151.667C151.818 245.012 151.943 244.887 151.943 244.736V244.084C151.943 243.933 151.818 243.808 151.667 243.808H126.464V245.012Z" fill="#F5F5F5"/>
<path d="M150.073 230.992C150.073 231.063 144.95 231.13 138.626 231.13C132.302 231.13 127.179 231.07 127.179 230.992C127.179 230.919 132.302 230.854 138.626 230.854C144.943 230.854 150.073 230.919 150.073 230.992Z" fill="#E0E0E0"/>
<path d="M150.073 234.123C150.073 234.196 144.95 234.261 138.626 234.261C132.302 234.261 127.179 234.202 127.179 234.123C127.179 234.051 132.302 233.984 138.626 233.984C144.943 233.992 150.073 234.051 150.073 234.123Z" fill="#E0E0E0"/>
<path d="M150.073 237.261C150.073 237.334 144.95 237.4 138.626 237.4C132.302 237.4 127.179 237.341 127.179 237.261C127.179 237.19 132.302 237.123 138.626 237.123C144.943 237.123 150.073 237.182 150.073 237.261Z" fill="#E0E0E0"/>
<path d="M150.073 240.394C150.073 240.466 144.95 240.532 138.626 240.532C132.302 240.532 127.179 240.472 127.179 240.394C127.179 240.321 132.302 240.256 138.626 240.256C144.943 240.256 150.073 240.315 150.073 240.394Z" fill="#E0E0E0"/>
<path d="M153.583 246.593H129.954V291.501H153.583V246.593Z" fill="#EBEBEB"/>
<path d="M129.953 245.015H19.0435V293.707H129.953V245.015Z" fill="#E0E0E0"/>
<path d="M155.433 293.698H126.923V290.54H155.433C156.305 290.54 157.007 291.244 157.007 292.118C157.007 292.994 156.299 293.698 155.433 293.698Z" fill="#E0E0E0"/>
<path d="M156.285 248.165H126.923V245.007H156.285C156.686 245.007 157.007 245.329 157.007 245.73V247.442C157.007 247.842 156.679 248.165 156.285 248.165Z" fill="#E0E0E0"/>
<path d="M153.583 252.607C153.583 252.679 148.295 252.745 141.768 252.745C135.241 252.745 129.954 252.685 129.954 252.607C129.954 252.534 135.241 252.469 141.768 252.469C148.295 252.475 153.583 252.534 153.583 252.607Z" fill="#E0E0E0"/>
<path d="M153.583 258.37C153.583 258.443 148.295 258.508 141.768 258.508C135.241 258.508 129.954 258.449 129.954 258.37C129.954 258.298 135.241 258.231 141.768 258.231C148.295 258.231 153.583 258.292 153.583 258.37Z" fill="#E0E0E0"/>
<path d="M153.583 264.129C153.583 264.2 148.295 264.267 141.768 264.267C135.241 264.267 129.954 264.206 129.954 264.129C129.954 264.055 135.241 263.99 141.768 263.99C148.295 263.99 153.583 264.055 153.583 264.129Z" fill="#E0E0E0"/>
<path d="M153.583 269.885C153.583 269.958 148.295 270.024 141.768 270.024C135.241 270.024 129.954 269.965 129.954 269.885C129.954 269.814 135.241 269.747 141.768 269.747C148.295 269.753 153.583 269.814 153.583 269.885Z" fill="#E0E0E0"/>
<path d="M153.583 275.65C153.583 275.722 148.295 275.788 141.768 275.788C135.241 275.788 129.954 275.729 129.954 275.65C129.954 275.577 135.241 275.512 141.768 275.512C148.295 275.512 153.583 275.571 153.583 275.65Z" fill="#E0E0E0"/>
<path d="M153.583 281.406C153.583 281.479 148.295 281.544 141.768 281.544C135.241 281.544 129.954 281.485 129.954 281.406C129.954 281.334 135.241 281.268 141.768 281.268C148.295 281.268 153.583 281.334 153.583 281.406Z" fill="#E0E0E0"/>
<path d="M153.583 287.165C153.583 287.236 148.295 287.303 141.768 287.303C135.241 287.303 129.954 287.244 129.954 287.165C129.954 287.092 135.241 287.026 141.768 287.026C148.295 287.033 153.583 287.092 153.583 287.165Z" fill="#E0E0E0"/>
<path d="M56.9934 272.018V274.728C56.9934 277.992 55.3665 279.853 52.2308 279.853C49.0952 279.853 47.4683 277.992 47.4683 274.728V264.122C47.4683 260.857 49.0952 258.996 52.2308 258.996C55.3665 258.996 56.9934 260.857 56.9934 264.122V266.102H53.9758V263.917C53.9758 262.463 53.3394 261.911 52.3227 261.911C51.3059 261.911 50.6696 262.463 50.6696 263.917V274.933C50.6696 276.387 51.3059 276.913 52.3227 276.913C53.3394 276.913 53.9758 276.387 53.9758 274.933V272.018H56.9934Z" fill="#EBEBEB"/>
<path d="M58.6792 264.129C58.6792 260.864 60.3914 259.003 63.527 259.003C66.6628 259.003 68.3749 260.864 68.3749 264.129V274.735C68.3749 277.999 66.6628 279.86 63.527 279.86C60.3914 279.86 58.6792 277.999 58.6792 274.735V264.129ZM61.8739 274.933C61.8739 276.387 62.5103 276.939 63.527 276.939C64.5438 276.939 65.1801 276.387 65.1801 274.933V263.924C65.1801 262.469 64.5438 261.918 63.527 261.918C62.5103 261.918 61.8739 262.469 61.8739 263.924V274.933Z" fill="#EBEBEB"/>
<path d="M70.4346 259.233H73.6292V276.709H78.8838V279.623H70.4346V259.233Z" fill="#EBEBEB"/>
<path d="M80.019 264.129C80.019 260.864 81.7312 259.003 84.867 259.003C88.0026 259.003 89.7148 260.864 89.7148 264.129V274.735C89.7148 277.999 88.0026 279.86 84.867 279.86C81.7312 279.86 80.019 277.999 80.019 274.735V264.129ZM83.2139 274.933C83.2139 276.387 83.8501 276.939 84.867 276.939C85.8837 276.939 86.5201 276.387 86.5201 274.933V263.924C86.5201 262.469 85.8837 261.918 84.867 261.918C83.8501 261.918 83.2139 262.469 83.2139 263.924V274.933Z" fill="#EBEBEB"/>
<path d="M94.8312 259.233V274.965C94.8312 276.419 95.4675 276.945 96.4843 276.945C97.501 276.945 98.1375 276.419 98.1375 274.965V259.233H101.155V274.762C101.155 278.025 99.5281 279.887 96.3924 279.887C93.2568 279.887 91.6299 278.025 91.6299 274.762V259.233H94.8312Z" fill="#EBEBEB"/>
<path d="M110.018 279.623C109.84 279.097 109.729 278.783 109.729 277.117V273.913C109.729 272.018 109.093 271.321 107.636 271.321H106.534V279.623H103.339V259.233H108.161C111.474 259.233 112.897 260.778 112.897 263.924V265.523C112.897 267.622 112.228 268.991 110.805 269.661C112.405 270.334 112.924 271.874 112.924 274.005V277.15C112.924 278.144 112.95 278.867 113.271 279.623H110.018ZM106.534 262.148V268.412H107.781C108.974 268.412 109.696 267.886 109.696 266.254V264.246C109.696 262.792 109.204 262.148 108.069 262.148H106.534Z" fill="#EBEBEB"/>
<path d="M56.3043 234.241H53.9756L54.1002 233.636H59.4466L59.3154 234.241H56.9931L55.7926 240.255H55.1039L56.3043 234.241Z" fill="#E0E0E0"/>
<path d="M63.9336 235.281L60.3125 240.9C59.7024 241.849 59.2366 242.138 58.5216 242.138C58.0623 242.138 57.59 241.979 57.3408 241.69L57.7016 241.197C57.918 241.421 58.2001 241.558 58.5807 241.558C59.007 241.558 59.335 241.361 59.7221 240.755L60.0697 240.229L58.8365 235.281H59.5121L60.542 239.519L63.2513 235.281H63.9336Z" fill="#E0E0E0"/>
<path d="M69.444 237.341C69.444 239.051 68.2565 240.302 66.6363 240.302C65.6916 240.302 65.0357 239.913 64.747 239.217L64.1828 242.092H63.5137L64.8651 235.281H65.508L65.3506 236.078C65.8229 235.552 66.4853 235.248 67.2857 235.248C68.5517 235.242 69.444 236.038 69.444 237.341ZM68.7682 237.381C68.7682 236.407 68.1713 235.828 67.1348 235.828C65.9016 235.828 64.9963 236.801 64.9963 238.163C64.9963 239.137 65.5932 239.703 66.6298 239.703C67.8629 239.709 68.7682 238.735 68.7682 237.381Z" fill="#E0E0E0"/>
<path d="M70.2246 238.196C70.2246 236.505 71.4251 235.248 73.0914 235.248C74.469 235.248 75.3481 236.065 75.3481 237.348C75.3481 239.051 74.1476 240.309 72.4813 240.309C71.1037 240.302 70.2246 239.473 70.2246 238.196ZM74.679 237.381C74.679 236.407 74.0819 235.828 73.0455 235.828C71.8122 235.828 70.8937 236.807 70.8937 238.163C70.8937 239.137 71.4908 239.703 72.5272 239.703C73.7605 239.709 74.679 238.735 74.679 237.381Z" fill="#E0E0E0"/>
<path d="M81.7642 235.281L80.8982 239.65C80.5505 241.406 79.6255 242.137 78.0118 242.137C77.0803 242.137 76.3128 241.874 75.8076 241.387L76.2012 240.874C76.5948 241.282 77.2639 241.538 78.0576 241.538C79.3107 241.538 79.9733 240.96 80.2094 239.761L80.3208 239.21C79.8485 239.742 79.1794 240.065 78.3398 240.065C77.0278 240.065 76.1487 239.3 76.1487 238.058C76.1487 236.459 77.3295 235.241 78.9761 235.241C79.8879 235.241 80.6292 235.616 80.9112 236.373L81.1212 235.275H81.7642V235.281ZM80.6357 237.274C80.6357 236.366 80.0256 235.828 78.9958 235.828C77.7428 235.828 76.8375 236.754 76.8375 238.018C76.8375 238.925 77.4411 239.466 78.4776 239.466C79.7239 239.472 80.6357 238.544 80.6357 237.274Z" fill="#E0E0E0"/>
<path d="M86.1393 235.241L86.0147 235.893C85.949 235.893 85.9031 235.88 85.8244 235.88C84.7682 235.88 84.0597 236.486 83.817 237.722L83.3185 240.249H82.6494L83.6334 235.275H84.2762L84.1057 236.182C84.5452 235.537 85.1946 235.241 86.1393 235.241Z" fill="#E0E0E0"/>
<path d="M91.8268 235.281L90.8363 240.256H90.1933L90.3508 239.473C89.8784 239.992 89.2225 240.302 88.4156 240.302C87.1429 240.302 86.2573 239.506 86.2573 238.196C86.2573 236.493 87.4446 235.248 89.0584 235.248C90.003 235.248 90.6591 235.637 90.9412 236.327L91.1511 235.288H91.8268V235.281ZM90.7115 237.381C90.7115 236.407 90.1146 235.828 89.0781 235.828C87.8449 235.828 86.9264 236.807 86.9264 238.163C86.9264 239.137 87.5233 239.703 88.5599 239.703C89.7997 239.709 90.7115 238.735 90.7115 237.381Z" fill="#E0E0E0"/>
<path d="M98.2622 237.341C98.2622 239.051 97.0749 240.302 95.4545 240.302C94.5098 240.302 93.8539 239.913 93.5652 239.217L93.0011 242.092H92.332L93.6833 235.281H94.3262L94.1688 236.078C94.6411 235.552 95.3037 235.248 96.1039 235.248C97.3634 235.242 98.2622 236.038 98.2622 237.341ZM97.5866 237.381C97.5866 236.407 96.9895 235.828 95.9531 235.828C94.7198 235.828 93.8145 236.801 93.8145 238.163C93.8145 239.137 94.4114 239.703 95.448 239.703C96.6813 239.709 97.5866 238.735 97.5866 237.381Z" fill="#E0E0E0"/>
<path d="M104.265 236.861C104.265 237.037 104.245 237.228 104.206 237.427L103.641 240.256H102.972L103.537 237.419C103.563 237.261 103.582 237.11 103.582 236.966C103.582 236.255 103.156 235.847 102.303 235.847C101.247 235.847 100.519 236.425 100.283 237.584L99.758 240.249H99.0889L100.486 233.228H101.155L100.598 236.018C101.07 235.478 101.733 235.235 102.494 235.235C103.615 235.241 104.265 235.847 104.265 236.861Z" fill="#E0E0E0"/>
<path d="M110.536 235.281L106.915 240.9C106.305 241.849 105.839 242.138 105.124 242.138C104.665 242.138 104.193 241.979 103.943 241.69L104.304 241.197C104.521 241.421 104.803 241.558 105.183 241.558C105.61 241.558 105.938 241.361 106.325 240.755L106.672 240.229L105.439 235.281H106.115L107.145 239.519L109.854 235.281H110.536Z" fill="#E0E0E0"/>
<path d="M121.256 31.7871H41.8867H20.6323L37.0258 43.6508V66.9901C37.0258 69.6812 39.2037 71.8658 41.8867 71.8658H121.256C123.939 71.8658 126.117 69.6812 126.117 66.9901V36.6628C126.117 33.9715 123.939 31.7871 121.256 31.7871Z" fill="#F5F5F5"/>
<path d="M121.281 47.2841C121.281 47.3828 106.108 47.4617 87.3857 47.4617C68.6635 47.4617 53.4902 47.3828 53.4902 47.2841C53.4902 47.1854 68.6635 47.1064 87.3857 47.1064C106.108 47.1064 121.281 47.1854 121.281 47.2841Z" fill="#E0E0E0"/>
<path d="M121.281 56.246C121.281 56.3447 106.108 56.4237 87.3857 56.4237C68.6635 56.4237 53.4902 56.3447 53.4902 56.246C53.4902 56.1473 68.6635 56.0684 87.3857 56.0684C106.108 56.0684 121.281 56.1473 121.281 56.246Z" fill="#E0E0E0"/>
<path d="M474.466 293.698C474.466 293.79 371.585 293.87 244.702 293.87C117.772 293.87 14.9175 293.79 14.9175 293.698C14.9175 293.606 117.778 293.526 244.702 293.526C371.577 293.526 474.466 293.606 474.466 293.698Z" fill="#263238"/>
<path d="M431.287 260.114C431.287 260.114 413.897 240.038 407.336 219.963C400.777 199.888 403.892 202.191 403.892 202.191C403.892 202.191 412.748 221.694 419.479 231.109C426.204 240.533 438.181 254.351 438.181 254.351L431.287 260.114Z" fill="#455A64"/>
<path d="M434.75 205.323C434.187 204.343 432.698 204.848 432.862 205.967C433.925 213.02 436.213 229.563 436.121 240.302C436.004 254.244 436.128 259.634 436.128 259.634H443.363C443.363 259.634 442.078 230.814 440.445 222.023C439.304 215.864 436.869 209.02 434.75 205.323Z" fill="#455A64"/>
<path d="M438.701 257.291C438.701 257.291 443.252 247.685 444.657 235.617C445.254 230.484 444.19 223.548 442.61 214.29C441.843 209.81 441.672 206.394 441.699 204.033C441.718 202.243 444.067 201.664 444.938 203.224C445.811 204.789 448.344 210.126 448.98 213.475C450.731 222.615 452.719 227.182 451.197 235.853C449.682 244.527 444.073 257.877 444.073 257.877L438.701 257.291Z" fill="#455A64"/>
<path d="M445.214 257.877C445.214 257.877 464.304 216.719 465.629 210.619C466.954 204.513 471.454 190.445 471.979 191.241C472.511 192.038 473.304 199.473 469.86 207.968C466.423 216.463 451.728 259.135 451.728 259.135H445.208" fill="#455A64"/>
<path d="M436.607 256.035C436.601 256.048 436.417 255.916 436.069 255.667C435.728 255.409 435.217 255.048 434.593 254.535C433.32 253.534 431.536 252.008 429.464 249.994C425.297 245.981 420.109 239.789 415.615 232.163C411.109 224.536 408.077 217.081 406.162 211.62C405.205 208.888 404.503 206.652 404.049 205.093C403.815 204.316 403.656 203.71 403.545 203.295C403.434 202.882 403.381 202.664 403.394 202.664C403.407 202.658 403.486 202.868 403.624 203.276C403.768 203.716 403.959 204.309 404.2 205.047C404.7 206.585 405.441 208.804 406.438 211.52C408.419 216.943 411.482 224.359 415.97 231.952C420.451 239.546 425.574 245.736 429.673 249.784C431.714 251.823 433.465 253.37 434.704 254.409C435.315 254.942 435.814 255.323 436.136 255.6C436.45 255.876 436.614 256.021 436.607 256.035Z" fill="#263238"/>
<path d="M438.694 236.287C438.667 236.287 438.608 235.86 438.523 235.078C438.431 234.221 438.313 233.116 438.169 231.781C437.867 228.997 437.394 225.155 436.718 220.937C436.044 216.719 435.288 212.922 434.704 210.185C434.423 208.869 434.187 207.777 434.009 206.941C433.846 206.178 433.766 205.751 433.793 205.744C433.819 205.736 433.95 206.151 434.16 206.908C434.377 207.664 434.66 208.764 434.987 210.126C435.644 212.85 436.444 216.646 437.12 220.878C437.794 225.109 438.221 228.957 438.451 231.754C438.569 233.15 438.64 234.288 438.674 235.071C438.72 235.853 438.726 236.287 438.694 236.287Z" fill="#263238"/>
<path d="M443.167 202.895C443.181 202.888 443.259 203.073 443.39 203.414C443.535 203.802 443.725 204.309 443.962 204.94C444.217 205.606 444.506 206.422 444.781 207.389C445.063 208.356 445.43 209.441 445.706 210.686C445.857 211.304 446.014 211.949 446.179 212.62C446.336 213.291 446.453 214.008 446.598 214.739C446.914 216.199 447.103 217.786 447.333 219.45C447.707 222.786 447.91 226.478 447.791 230.359C447.634 234.236 447.169 237.907 446.558 241.21C446.211 242.855 445.903 244.42 445.49 245.855C445.293 246.572 445.128 247.276 444.919 247.941C444.709 248.599 444.506 249.231 444.309 249.837C443.941 251.054 443.501 252.113 443.147 253.054C442.8 254.001 442.452 254.797 442.157 255.436C441.875 256.048 441.652 256.541 441.475 256.916C441.318 257.251 441.226 257.429 441.213 257.423C441.199 257.416 441.265 257.232 441.403 256.884C441.56 256.501 441.757 255.996 442.013 255.369C442.289 254.719 442.616 253.915 442.938 252.968C443.265 252.021 443.692 250.954 444.039 249.738C444.224 249.133 444.42 248.5 444.623 247.842C444.82 247.184 444.977 246.48 445.168 245.763C445.568 244.328 445.857 242.769 446.198 241.13C446.782 237.84 447.241 234.189 447.391 230.34C447.51 226.484 447.32 222.813 446.972 219.489C446.749 217.832 446.572 216.258 446.277 214.797C446.139 214.068 446.034 213.358 445.884 212.685C445.725 212.015 445.582 211.369 445.438 210.751C445.181 209.514 444.833 208.423 444.571 207.455C444.316 206.48 444.046 205.659 443.824 204.986C443.614 204.343 443.449 203.829 443.325 203.433C443.206 203.092 443.154 202.901 443.167 202.895Z" fill="#263238"/>
<path d="M471.763 192.062C471.77 192.062 471.763 192.129 471.749 192.247C471.73 192.391 471.697 192.57 471.665 192.781C471.579 193.248 471.474 193.944 471.29 194.826C470.924 196.597 470.306 199.143 469.356 202.236C468.403 205.329 467.099 208.954 465.55 212.936C464.009 216.922 462.219 221.259 460.525 225.878C458.806 230.49 457.481 234.991 456.235 239.078C455.002 243.164 453.828 246.835 452.699 249.868C451.577 252.902 450.503 255.291 449.682 256.909C449.288 257.724 448.941 258.33 448.711 258.751C448.606 258.942 448.514 259.094 448.443 259.225C448.382 259.331 448.344 259.384 448.338 259.377C448.33 259.369 448.357 259.317 448.403 259.206C448.468 259.074 448.541 258.91 448.633 258.719C448.836 258.292 449.163 257.672 449.531 256.844C450.298 255.211 451.334 252.816 452.417 249.776C453.513 246.743 454.654 243.072 455.869 238.979C457.095 234.893 458.413 230.373 460.138 225.746C461.838 221.115 463.642 216.777 465.196 212.804C466.758 208.835 468.089 205.23 469.073 202.157C470.064 199.084 470.713 196.557 471.133 194.801C471.343 193.925 471.474 193.234 471.586 192.775C471.638 192.563 471.678 192.391 471.711 192.247C471.736 192.123 471.757 192.062 471.763 192.062Z" fill="#263238"/>
<path d="M412.893 182.97C411.693 181.774 409.692 183.023 410.184 184.655C410.688 186.307 411.457 188.438 412.585 190.839C415.209 196.432 422.917 216.509 426.531 227.536C430.14 238.559 435.223 259.127 435.223 259.127L442.932 257.871C442.932 257.871 435.879 224.076 428.991 211.895C423.455 202.118 417.918 187.985 412.893 182.97Z" fill="#455A64"/>
<path d="M428.637 234.433C428.664 234.426 428.8 234.755 429.037 235.361C429.267 235.966 429.575 236.853 429.922 237.953C430.632 240.158 431.503 243.236 432.376 246.658C433.249 250.08 433.977 253.192 434.482 255.455C434.712 256.522 434.909 257.423 435.059 258.133C435.19 258.766 435.242 259.12 435.217 259.127C435.19 259.133 435.079 258.791 434.901 258.167C434.712 257.463 434.475 256.574 434.193 255.522C433.603 253.198 432.828 250.139 431.969 246.757C431.097 243.343 430.27 240.256 429.633 238.033C429.332 236.985 429.076 236.103 428.873 235.401C428.702 234.787 428.611 234.439 428.637 234.433Z" fill="#263238"/>
<path d="M439.094 258.502C439.088 258.502 439.074 258.43 439.048 258.298C439.021 258.139 438.996 257.936 438.962 257.686C438.883 257.152 438.812 256.356 438.648 255.343C438.366 253.311 437.861 250.388 437.034 246.815C436.214 243.242 435.014 239.044 433.425 234.465C431.844 229.885 429.864 224.937 427.613 219.818C423.08 209.585 418.548 200.512 415.577 193.8C414.074 190.451 412.905 187.72 412.139 185.82C411.745 184.871 411.469 184.121 411.272 183.621C411.187 183.385 411.115 183.2 411.056 183.043C411.01 182.911 410.99 182.844 410.998 182.838C411.004 182.838 411.036 182.897 411.096 183.022C411.161 183.173 411.247 183.358 411.345 183.582C411.574 184.108 411.883 184.833 412.283 185.746C413.096 187.628 414.297 190.34 415.832 193.669C418.876 200.342 423.442 209.395 427.981 219.64C430.232 224.766 432.206 229.734 433.774 234.334C435.341 238.933 436.515 243.15 437.309 246.743C438.104 250.329 438.569 253.271 438.799 255.316C438.935 256.337 438.981 257.133 439.042 257.672C439.061 257.923 439.074 258.126 439.088 258.284C439.101 258.43 439.101 258.502 439.094 258.502Z" fill="#263238"/>
<path d="M442.932 257.877C442.905 257.883 442.813 257.416 442.668 256.58C442.517 255.673 442.314 254.474 442.071 253.028C441.54 250.033 440.727 245.907 439.565 241.421C438.412 236.926 437.112 232.925 436.109 230.057C435.617 228.674 435.21 227.53 434.901 226.662C434.614 225.858 434.469 225.411 434.495 225.405C434.522 225.392 434.718 225.819 435.053 226.608C435.386 227.391 435.847 228.536 436.385 229.964C437.453 232.813 438.805 236.815 439.965 241.321C441.133 245.828 441.902 249.975 442.367 252.988C442.584 254.495 442.754 255.719 442.839 256.567C442.917 257.403 442.957 257.871 442.932 257.877Z" fill="#263238"/>
<path d="M458.753 256.765H428.67V293.527H458.753V256.765Z" fill="#3BBAC8"/>
<path d="M449.15 256.765H422.464V293.527H449.15V256.765Z" fill="#3BBAC8"/>
<path d="M58.0759 243.986C52.9526 240.696 45.8481 240.631 40.8624 244.13C36.1262 247.454 33.7252 253.495 33.935 259.285C34.145 265.075 36.9396 272.148 42.1744 275.195L57.5248 275.136C62.4252 271.517 65.7446 265.693 65.9741 259.593C66.1972 253.487 63.1992 247.276 58.0759 243.986Z" fill="#455A64"/>
<path d="M50.5118 275.749C50.479 275.749 50.4463 275.275 50.4134 274.426C50.3873 273.479 50.3544 272.268 50.3085 270.814C50.2298 267.767 50.1117 263.556 49.9083 258.904C49.705 254.252 49.4556 250.047 49.2655 247.006C49.1801 245.56 49.1081 244.349 49.049 243.402C49.003 242.547 48.9965 242.079 49.0293 242.071C49.062 242.071 49.1343 242.539 49.2392 243.381C49.3442 244.23 49.4688 245.461 49.6066 246.981C49.8821 250.021 50.1905 254.232 50.3938 258.884C50.5971 263.536 50.6628 267.754 50.6496 270.807C50.6431 272.333 50.6234 273.571 50.5971 274.42C50.5774 275.275 50.5447 275.749 50.5118 275.749Z" fill="#263238"/>
<path d="M35.4765 257.969C35.4634 258.108 34.6303 258.146 33.6134 258.061C32.5966 257.976 31.7767 257.798 31.7897 257.666C31.8029 257.527 32.6359 257.488 33.6528 257.573C34.6696 257.653 35.4895 257.831 35.4765 257.969Z" fill="#263238"/>
<path d="M35.7647 252.771C35.7124 252.896 34.9907 252.691 34.1577 252.324C33.3244 251.955 32.6947 251.553 32.7472 251.429C32.7997 251.304 33.5212 251.501 34.3545 251.876C35.1875 252.245 35.8173 252.645 35.7647 252.771Z" fill="#263238"/>
<path d="M38.4288 248.915C38.3566 249.026 37.5497 248.645 36.71 247.947C35.8704 247.251 35.3391 246.526 35.4375 246.434C35.5359 246.342 36.205 246.895 37.0184 247.566C37.8318 248.244 38.5009 248.797 38.4288 248.915Z" fill="#263238"/>
<path d="M41.1116 245.277C40.987 245.329 40.5999 244.724 40.2457 243.921C39.8915 243.119 39.7012 242.421 39.8259 242.368C39.9505 242.316 40.3376 242.921 40.6918 243.724C41.0461 244.527 41.2297 245.224 41.1116 245.277Z" fill="#263238"/>
<path d="M45.3165 242.697C45.1984 242.756 44.7785 242.104 44.503 241.209C44.221 240.315 44.2013 239.545 44.3325 239.518C44.4703 239.493 44.6998 240.197 44.9688 241.058C45.2311 241.926 45.4411 242.637 45.3165 242.697Z" fill="#263238"/>
<path d="M52.329 239.782C52.4536 239.828 52.3816 240.38 52.1519 241.013C51.9289 241.651 51.6402 242.125 51.5157 242.085C51.3909 242.039 51.4631 241.486 51.6928 240.855C51.9158 240.216 52.2045 239.736 52.329 239.782Z" fill="#263238"/>
<path d="M57.5376 242.025C57.6294 242.125 57.2948 242.584 56.7898 243.051C56.2846 243.519 55.8058 243.816 55.7139 243.716C55.622 243.617 55.9566 243.158 56.4618 242.691C56.9603 242.223 57.4458 241.926 57.5376 242.025Z" fill="#263238"/>
<path d="M62.1167 244.994C62.1954 245.105 61.7888 245.514 61.2049 245.908C60.6276 246.302 60.0963 246.526 60.0176 246.415C59.9388 246.302 60.3455 245.895 60.9293 245.499C61.5132 245.105 62.0446 244.881 62.1167 244.994Z" fill="#263238"/>
<path d="M65.3701 249.415C65.4225 249.539 64.7797 249.935 63.94 250.295C63.0938 250.658 62.3656 250.849 62.3131 250.725C62.2605 250.599 62.9035 250.205 63.7497 249.842C64.5894 249.486 65.3176 249.289 65.3701 249.415Z" fill="#263238"/>
<path d="M66.6562 254.244C66.6759 254.376 66.0199 254.573 65.1999 254.673C64.3798 254.778 63.6977 254.745 63.6845 254.613C63.6648 254.482 64.3208 254.284 65.1408 254.185C65.9609 254.08 66.6365 254.107 66.6562 254.244Z" fill="#263238"/>
<path d="M67.3188 260.186C67.2663 260.312 66.571 260.128 65.7639 259.778C64.957 259.43 64.3536 259.042 64.406 258.916C64.4585 258.791 65.1538 258.975 65.9609 259.325C66.7678 259.673 67.3778 260.061 67.3188 260.186Z" fill="#263238"/>
<path d="M66.735 265.285C66.6892 265.411 65.8101 265.201 64.8916 264.595C63.9667 263.996 63.4223 263.273 63.5207 263.181C63.6191 263.082 64.2882 263.615 65.1606 264.181C66.0266 264.753 66.7809 265.155 66.735 265.285Z" fill="#263238"/>
<path d="M64.0848 269.925C64.006 270.03 63.3042 269.616 62.6351 268.892C61.9593 268.168 61.6051 267.437 61.7101 267.366C61.8215 267.286 62.3464 267.865 62.9893 268.563C63.6388 269.254 64.1766 269.82 64.0848 269.925Z" fill="#263238"/>
<path d="M38.96 270.472C39.0256 270.589 38.2842 271.096 37.3199 271.603C36.3491 272.11 35.516 272.419 35.4503 272.301C35.3848 272.182 36.1261 271.675 37.0904 271.17C38.0613 270.663 38.8943 270.353 38.96 270.472Z" fill="#263238"/>
<path d="M36.6638 266.272C36.7229 266.398 36.1325 266.786 35.3453 267.142C34.5646 267.496 33.8824 267.688 33.8234 267.563C33.7644 267.437 34.3548 267.049 35.142 266.693C35.9292 266.339 36.6048 266.148 36.6638 266.272Z" fill="#263238"/>
<path d="M34.9782 262.555C34.9979 262.687 34.2697 262.904 33.3579 263.036C32.4461 263.167 31.6851 263.16 31.6654 263.028C31.6457 262.898 32.3739 262.68 33.2857 262.548C34.1976 262.416 34.9585 262.416 34.9782 262.555Z" fill="#263238"/>
<path d="M40.5081 260.503C40.5475 260.627 39.839 260.962 38.8943 261.069C37.9497 261.18 37.1888 261.008 37.1954 260.878C37.2019 260.74 37.9432 260.679 38.8353 260.574C39.7341 260.482 40.4687 260.371 40.5081 260.503Z" fill="#263238"/>
<path d="M45.1066 255.916C45.1459 256.041 44.5817 256.331 43.8209 256.402C43.0599 256.482 42.4563 256.31 42.4694 256.18C42.4826 256.041 43.0664 255.989 43.7748 255.916C44.4833 255.844 45.0672 255.784 45.1066 255.916Z" fill="#263238"/>
<path d="M45.9858 252.238C45.9397 252.37 45.3297 252.27 44.6212 252.027C43.9127 251.784 43.3748 251.482 43.4207 251.35C43.4667 251.224 44.0768 251.317 44.7853 251.56C45.4938 251.811 46.0316 252.113 45.9858 252.238Z" fill="#263238"/>
<path d="M47.6713 248.521C47.5796 248.613 47.1597 248.337 46.858 247.817C46.5563 247.297 46.5299 246.796 46.6547 246.757C46.7857 246.717 47.0154 247.106 47.2778 247.566C47.5468 248.039 47.7697 248.429 47.6713 248.521Z" fill="#263238"/>
<path d="M45.6379 263.74C45.6707 263.87 45.1394 264.113 44.4571 264.279C44.0635 264.377 43.7027 264.423 43.4666 264.423L43.3682 264.134C43.5453 264.101 43.6567 264.107 43.683 264.16C43.7027 264.214 43.637 264.306 43.4927 264.411L43.3943 264.121C43.6043 264.009 43.9454 263.891 44.339 263.792C45.0278 263.64 45.605 263.608 45.6379 263.74Z" fill="#263238"/>
<path d="M46.589 270.26C46.6415 270.386 45.9659 270.774 45.0868 271.115C44.2077 271.465 43.4533 271.643 43.4008 271.517C43.3484 271.392 44.0241 271.01 44.9031 270.662C45.7821 270.313 46.5366 270.136 46.589 270.26Z" fill="#263238"/>
<path d="M41.3936 267.365C41.4395 267.496 40.9868 267.766 40.3899 267.963C39.7929 268.168 39.2747 268.227 39.2288 268.101C39.1828 267.971 39.6354 267.707 40.2325 267.504C40.8294 267.299 41.3476 267.233 41.3936 267.365Z" fill="#263238"/>
<path d="M41.787 254.099C41.7543 254.231 40.9737 254.153 40.0684 253.83C39.1631 253.508 38.5071 253.08 38.5662 252.954C38.6252 252.829 39.3534 253.053 40.2323 253.363C41.1114 253.678 41.8199 253.961 41.787 254.099Z" fill="#263238"/>
<path d="M54.3559 252.659C54.4281 252.771 53.9887 253.198 53.3719 253.607C52.7554 254.015 52.1911 254.252 52.1191 254.139C52.0469 254.028 52.4863 253.6 53.1031 253.192C53.7197 252.783 54.2839 252.54 54.3559 252.659Z" fill="#263238"/>
<path d="M55.839 266.564C55.7799 266.688 55.1173 266.497 54.3498 266.142C53.5823 265.786 53.0116 265.399 53.0706 265.273C53.1296 265.147 53.7923 265.338 54.5598 265.694C55.3208 266.05 55.8915 266.438 55.839 266.564Z" fill="#263238"/>
<path d="M54.153 273.722C54.048 273.808 53.615 273.452 53.1887 272.932C52.7622 272.406 52.4999 271.912 52.5983 271.827C52.7032 271.741 53.1362 272.096 53.5626 272.616C53.9956 273.143 54.2579 273.636 54.153 273.722Z" fill="#263238"/>
<path d="M53.8118 247.836C53.897 247.941 53.6083 248.303 53.1163 248.547C52.6243 248.798 52.1652 248.81 52.1323 248.678C52.093 248.547 52.4539 248.33 52.8933 248.106C53.3395 247.888 53.7264 247.731 53.8118 247.836Z" fill="#263238"/>
<path d="M59.9714 254.436C60.0175 254.56 59.4467 254.876 58.6661 254.981C57.8854 255.094 57.2556 254.942 57.2623 254.811C57.2688 254.673 57.8723 254.594 58.6005 254.495C59.322 254.403 59.9256 254.311 59.9714 254.436Z" fill="#263238"/>
<path d="M58.7445 248.514C58.8036 248.632 58.2394 249.04 57.4325 249.296C56.6256 249.554 55.9303 249.554 55.9106 249.422C55.8909 249.284 56.5142 249.072 57.2817 248.829C58.0492 248.579 58.6855 248.389 58.7445 248.514Z" fill="#263238"/>
<path d="M61.316 263.614C61.316 263.746 60.345 263.831 59.1774 263.621C58.0097 263.411 57.1307 262.99 57.1765 262.864C57.2225 262.732 58.1343 262.936 59.2626 263.134C60.391 263.344 61.316 263.476 61.316 263.614Z" fill="#263238"/>
<path d="M59.0271 272.221C58.9483 272.326 58.2334 271.905 57.5249 271.188C56.8099 270.471 56.3966 269.753 56.5015 269.675C56.6131 269.589 57.1838 270.148 57.8726 270.84C58.5547 271.536 59.1124 272.116 59.0271 272.221Z" fill="#263238"/>
<path d="M48.9641 241.505C49.0363 241.611 47.0093 242.433 44.6674 244.914C42.3254 247.335 39.9113 251.612 39.3144 256.777C39.0322 259.344 39.2751 261.831 39.6358 264.048C40.0162 266.266 40.5279 268.24 40.9937 269.885C41.466 271.53 41.899 272.846 42.1877 273.755C42.4762 274.669 42.6337 275.176 42.601 275.188C42.5681 275.201 42.3581 274.715 42.0106 273.82C41.6628 272.925 41.184 271.622 40.6657 269.983C40.154 268.345 39.6096 266.372 39.1963 264.128C38.8027 261.89 38.5402 259.363 38.8289 256.725C39.439 251.442 41.9645 247.085 44.418 244.677C45.6382 243.453 46.7861 242.638 47.6259 242.163C48.0326 241.907 48.3802 241.769 48.6099 241.651C48.8329 241.545 48.9576 241.492 48.9641 241.505Z" fill="#263238"/>
<path d="M55.6484 275.505C55.5433 275.452 56.7504 273.583 57.8525 270.228C58.9873 266.905 59.9254 261.989 59.1711 256.653C58.8168 253.988 58.0493 251.52 57.085 249.415C56.0813 247.335 54.7889 245.631 53.5294 244.441C52.224 243.282 50.9382 242.618 50.0396 242.23C49.1343 241.848 48.5897 241.762 48.5962 241.723C48.5962 241.71 48.734 241.716 48.9965 241.756C49.2524 241.802 49.6328 241.888 50.1051 242.058C51.0432 242.4 52.3683 243.026 53.7524 244.183C55.0973 245.388 56.4289 247.085 57.4916 249.225C58.502 251.369 59.2957 253.877 59.6564 256.587C60.4239 262.029 59.4138 267.016 58.1804 270.346C57.9049 271.194 57.5441 271.926 57.2818 272.576C56.9669 273.208 56.7044 273.761 56.4683 274.195C55.9632 275.05 55.6745 275.518 55.6484 275.505Z" fill="#263238"/>
<path d="M36.6641 274.34H63.6782L63.8421 279.761H36.6641V274.34Z" fill="#3BBAC8"/>
<path d="M38.96 277.052L40.508 293.607H60.2602L61.8478 277.236L38.96 277.052Z" fill="#3BBAC8"/>
<path d="M385.695 289.066H99.7318C94.4511 289.066 90.1738 284.776 90.1738 279.479V96.2922C90.1738 90.9953 94.4511 86.7051 99.7318 86.7051H385.695C390.977 86.7051 395.254 90.9953 395.254 96.2922V279.479C395.254 284.77 390.977 289.066 385.695 289.066Z" fill="#455A64"/>
<path d="M399.039 293.698H91.8662C85.4177 293.698 80.1895 288.453 80.1895 281.986V275.991H410.715V281.986C410.715 288.46 405.487 293.698 399.039 293.698Z" fill="#455A64"/>
<path d="M212.643 274.097L216.742 280.643H274.457L278.263 274.097H212.643Z" fill="#263238"/>
<path d="M392.629 274.096C392.629 274.208 324.917 274.294 241.409 274.294C157.873 274.294 90.1738 274.208 90.1738 274.096C90.1738 273.984 157.873 273.899 241.409 273.899C324.917 273.899 392.629 273.984 392.629 274.096Z" fill="#263238"/>
<path d="M383.176 268.747H101.063C99.8758 268.747 98.918 267.779 98.918 266.595V100.496C98.918 99.3053 99.8823 98.3447 101.063 98.3447H383.182C384.369 98.3447 385.328 99.3119 385.328 100.496V266.595C385.321 267.779 384.363 268.747 383.176 268.747Z" fill="#EBEBEB"/>
<path d="M385.02 268.997H98.6035L98.9119 111.077H385.02V268.997Z" fill="white"/>
<path d="M122.403 104.924C122.403 106.194 121.38 107.221 120.114 107.221C118.848 107.221 117.824 106.194 117.824 104.924C117.824 103.654 118.848 102.628 120.114 102.628C121.38 102.628 122.403 103.654 122.403 104.924Z" fill="#263238"/>
<path d="M108.542 104.924C108.542 106.194 107.518 107.221 106.252 107.221C104.986 107.221 103.963 106.194 103.963 104.924C103.963 103.654 104.986 102.628 106.252 102.628C107.518 102.628 108.542 103.654 108.542 104.924Z" fill="#263238"/>
<path d="M115.194 104.924C115.194 106.194 114.17 107.221 112.904 107.221C111.638 107.221 110.615 106.194 110.615 104.924C110.615 103.654 111.638 102.628 112.904 102.628C114.17 102.628 115.194 103.654 115.194 104.924Z" fill="#263238"/>
<path d="M385.322 253.745H98.6035V268.997H385.322V253.745Z" fill="#263238"/>
<path d="M109.441 263.135V263.621H107.158V263.234L108.391 262.062C108.693 261.773 108.745 261.595 108.745 261.417C108.745 261.134 108.548 260.97 108.168 260.97C107.866 260.97 107.617 261.075 107.44 261.291L107.04 260.983C107.276 260.66 107.709 260.47 108.214 260.47C108.889 260.47 109.322 260.811 109.322 261.365C109.322 261.667 109.237 261.943 108.811 262.345L107.984 263.135H109.441Z" fill="white"/>
<path d="M109.749 261.594C109.749 261.37 109.912 261.226 110.109 261.226C110.306 261.226 110.47 261.37 110.47 261.594C110.47 261.804 110.306 261.963 110.109 261.963C109.912 261.963 109.749 261.81 109.749 261.594ZM109.749 263.285C109.749 263.061 109.912 262.917 110.109 262.917C110.306 262.917 110.47 263.061 110.47 263.285C110.47 263.495 110.306 263.654 110.109 263.654C109.912 263.654 109.749 263.502 109.749 263.285Z" fill="white"/>
<path d="M111.914 260.515V263.621H111.336V260.995H110.68V260.509H111.914V260.515Z" fill="white"/>
<path d="M115.292 262.917H114.741V263.621H114.183V262.917H112.484V262.515L114.013 260.516H114.629L113.193 262.431H114.21V261.805H114.748V262.431H115.299V262.917H115.292Z" fill="white"/>
<path d="M355.356 261.673H120.35V262.746H355.356V261.673Z" fill="white"/>
<path d="M193.612 260.521H120.173V263.39H193.612V260.521Z" fill="url(#paint0_linear_808:2975)"/>
<path d="M195.986 262.213C195.986 264.193 194.386 265.798 192.412 265.798C190.437 265.798 188.836 264.193 188.836 262.213C188.836 260.232 190.437 258.627 192.412 258.627C194.386 258.627 195.986 260.232 195.986 262.213Z" fill="url(#paint1_linear_808:2975)"/>
<path d="M361.272 262.179C361.272 262.798 360.774 263.187 360.138 263.187C359.292 263.187 358.8 262.64 358.8 261.641C358.8 260.574 359.416 259.989 360.314 259.989C360.623 259.989 360.919 260.054 361.128 260.186L360.919 260.62C360.747 260.509 360.544 260.469 360.328 260.469C359.744 260.469 359.376 260.832 359.376 261.542V261.548C359.56 261.331 359.862 261.226 360.203 261.226C360.82 261.226 361.272 261.601 361.272 262.179ZM360.715 262.206C360.715 261.884 360.473 261.68 360.098 261.68C359.724 261.68 359.468 261.903 359.468 262.213C359.468 262.502 359.698 262.739 360.111 262.739C360.473 262.733 360.715 262.529 360.715 262.206Z" fill="white"/>
<path d="M361.555 261.115C361.555 260.891 361.719 260.746 361.915 260.746C362.112 260.746 362.276 260.891 362.276 261.115C362.276 261.325 362.112 261.482 361.915 261.482C361.719 261.482 361.555 261.325 361.555 261.115ZM361.555 262.806C361.555 262.582 361.719 262.437 361.915 262.437C362.112 262.437 362.276 262.582 362.276 262.806C362.276 263.016 362.112 263.173 361.915 263.173C361.719 263.173 361.555 263.016 361.555 262.806Z" fill="white"/>
<path d="M362.65 261.588C362.65 260.568 363.207 259.989 363.942 259.989C364.683 259.989 365.242 260.568 365.242 261.588C365.242 262.607 364.683 263.187 363.942 263.187C363.207 263.187 362.65 262.607 362.65 261.588ZM364.658 261.588C364.658 260.838 364.369 260.488 363.942 260.488C363.523 260.488 363.228 260.838 363.228 261.588C363.228 262.338 363.523 262.686 363.942 262.686C364.369 262.686 364.658 262.338 364.658 261.588Z" fill="white"/>
<path d="M365.621 261.588C365.621 260.568 366.18 259.989 366.915 259.989C367.656 259.989 368.213 260.568 368.213 261.588C368.213 262.607 367.656 263.187 366.915 263.187C366.18 263.187 365.621 262.607 365.621 261.588ZM367.635 261.588C367.635 260.838 367.346 260.488 366.921 260.488C366.5 260.488 366.205 260.838 366.205 261.588C366.205 262.338 366.5 262.686 366.921 262.686C367.34 262.686 367.635 262.338 367.635 261.588Z" fill="white"/>
<path d="M373.218 261.398H372.148V258.299H375.226V259.372H373.218V261.398Z" fill="white"/>
<path d="M375.233 265.438H372.143V262.352H373.212V264.365H375.233V265.438Z" fill="white"/>
<path d="M380.153 265.438H377.069V264.365H379.077V262.339H380.153V265.438Z" fill="white"/>
<path d="M380.153 261.39H379.083V259.372H377.062V258.299H380.153V261.39Z" fill="white"/>
<path d="M137.885 120.467H120.999L112.563 135.127L120.999 149.794H137.885L146.321 135.127L137.885 120.467Z" fill="#EBEBEB"/>
<path d="M122.377 138.002C121.623 137.167 120.862 136.318 120.311 135.331C119.76 134.344 119.432 133.199 119.615 132.08C119.72 131.429 119.996 130.81 120.042 130.152C120.101 129.244 119.72 128.297 120.042 127.448C120.54 126.119 122.325 125.915 123.407 125C124.247 124.283 124.66 123.125 125.585 122.526C126.392 122 127.435 122.013 128.386 122.151C129.337 122.289 130.301 122.526 131.253 122.401C131.935 122.309 132.571 122.033 133.24 121.868C133.91 121.704 134.651 121.658 135.241 122.006C135.832 122.355 136.166 123.197 135.779 123.763C136.888 123.25 138.292 124.118 138.593 125.296C138.895 126.481 138.292 127.757 137.354 128.54C136.415 129.323 135.202 129.685 134.008 129.909C130.623 130.547 126.943 130.185 124.024 128.349" fill="#263238"/>
<path d="M138.029 141.621C137.918 139.522 137.327 135.219 136.757 131.33C136.14 127.145 132.42 124.145 128.215 124.428L127.796 124.454C123.309 125.02 121.282 129.159 121.97 133.646L123.289 149.8H134.244C134.244 149.8 133.988 146.964 133.982 146.938C133.982 146.931 138.265 145.964 138.029 141.621Z" fill="#FFBE9D"/>
<path d="M133.981 146.872C133.981 146.872 131.259 147.28 128.228 145.642C128.228 145.642 129.77 148.675 134.066 147.997L133.981 146.872Z" fill="#EB996E"/>
<path d="M135.359 135.055C135.391 135.384 135.142 135.68 134.801 135.719C134.46 135.759 134.158 135.528 134.125 135.199C134.093 134.87 134.342 134.574 134.676 134.535C135.024 134.495 135.326 134.726 135.359 135.055Z" fill="#263238"/>
<path d="M135.969 133.515C135.897 133.601 135.405 133.285 134.742 133.331C134.08 133.371 133.614 133.745 133.535 133.667C133.496 133.634 133.568 133.482 133.765 133.311C133.962 133.14 134.309 132.969 134.723 132.943C135.136 132.916 135.497 133.048 135.707 133.193C135.923 133.331 136.002 133.476 135.969 133.515Z" fill="#263238"/>
<path d="M129.075 135.509C129.107 135.838 128.858 136.134 128.517 136.173C128.176 136.213 127.874 135.982 127.841 135.653C127.808 135.324 128.058 135.028 128.392 134.989C128.74 134.949 129.042 135.18 129.075 135.509Z" fill="#263238"/>
<path d="M129.435 134.081C129.363 134.166 128.871 133.85 128.209 133.897C127.546 133.936 127.08 134.311 127.002 134.232C126.962 134.199 127.034 134.048 127.238 133.877C127.434 133.706 127.782 133.535 128.195 133.508C128.609 133.482 128.97 133.613 129.179 133.758C129.389 133.897 129.468 134.041 129.435 134.081Z" fill="#263238"/>
<path d="M132.178 138.864C132.171 138.825 132.578 138.726 133.247 138.594C133.417 138.568 133.575 138.522 133.594 138.404C133.627 138.279 133.542 138.101 133.45 137.903C133.26 137.502 133.07 137.081 132.86 136.64C132.04 134.837 131.43 133.357 131.502 133.324C131.574 133.291 132.302 134.725 133.122 136.528C133.319 136.976 133.509 137.397 133.693 137.805C133.772 137.996 133.896 138.206 133.824 138.469C133.785 138.601 133.667 138.7 133.562 138.739C133.457 138.779 133.358 138.785 133.273 138.798C132.604 138.871 132.184 138.904 132.178 138.864Z" fill="#263238"/>
<path d="M129.429 131.448C129.376 131.632 128.707 131.593 127.933 131.738C127.153 131.869 126.542 132.139 126.424 131.988C126.372 131.915 126.47 131.738 126.713 131.54C126.956 131.35 127.343 131.152 127.809 131.073C128.274 130.988 128.707 131.034 129.002 131.132C129.298 131.231 129.455 131.363 129.429 131.448Z" fill="#263238"/>
<path d="M135.595 131.6C135.49 131.758 135.018 131.633 134.467 131.659C133.916 131.672 133.457 131.83 133.339 131.679C133.286 131.607 133.352 131.449 133.542 131.291C133.732 131.133 134.06 130.995 134.441 130.981C134.821 130.968 135.156 131.087 135.359 131.225C135.562 131.37 135.641 131.521 135.595 131.6Z" fill="#263238"/>
<path d="M122.541 136.831C122.462 136.805 119.504 136.147 119.799 139.114C120.094 142.075 123.295 141.114 123.289 141.029C123.289 140.937 122.541 136.831 122.541 136.831Z" fill="#FFBE9D"/>
<path d="M121.977 140.055C121.964 140.049 121.931 140.095 121.845 140.147C121.767 140.193 121.622 140.233 121.459 140.193C121.137 140.108 120.822 139.641 120.757 139.108C120.724 138.838 120.757 138.575 120.829 138.357C120.894 138.134 121.026 137.969 121.176 137.923C121.327 137.871 121.452 137.956 121.491 138.035C121.537 138.114 121.524 138.173 121.544 138.18C121.55 138.186 121.603 138.127 121.563 138.002C121.544 137.943 121.504 137.877 121.426 137.831C121.347 137.778 121.242 137.759 121.13 137.785C120.907 137.825 120.717 138.055 120.638 138.298C120.547 138.542 120.501 138.838 120.54 139.141C120.619 139.733 120.98 140.266 121.419 140.345C121.629 140.378 121.8 140.299 121.885 140.22C121.983 140.128 121.99 140.055 121.977 140.055Z" fill="#EB996E"/>
<path d="M136.54 127.27C136.337 128.448 133.956 129.527 131.974 129.475C130.151 129.422 129.252 128.514 127.927 127.869C127.087 127.461 127.087 127.461 125.952 127.646C125.034 127.797 124.555 128.883 124.037 129.659C125.021 131.811 124.621 134.311 124.208 136.64C124.161 136.897 124.102 137.173 123.906 137.351C123.571 137.647 123.033 137.469 122.712 137.167C122.187 136.686 121.951 135.976 121.78 135.285C121.387 133.712 121.242 132.067 121.485 130.468C121.734 128.869 122.39 127.31 123.486 126.119C124.85 124.625 126.838 123.763 128.858 123.658C130.872 123.553 132.899 124.178 134.585 125.29C135.359 125.81 136.094 126.441 136.54 127.27Z" fill="#263238"/>
<path d="M132.617 140.365C132.112 140.128 131.614 139.898 131.108 139.661C131.023 139.622 130.931 139.582 130.833 139.589C130.728 139.602 130.643 139.681 130.571 139.766C130.223 140.187 130.131 140.832 130.407 141.312C130.675 141.793 131.312 142.043 131.817 141.832C132.348 141.609 132.611 140.99 132.65 140.411L132.617 140.365Z" fill="#EB996E"/>
<path d="M131.869 141.944C131.895 141.97 131.554 142.187 130.984 142.023C130.708 141.937 130.393 141.727 130.203 141.384C130.006 141.049 129.934 140.575 130.105 140.147C130.183 139.937 130.315 139.746 130.472 139.601C130.551 139.529 130.629 139.463 130.728 139.41C130.826 139.338 131.03 139.331 131.121 139.384C131.463 139.575 131.699 139.739 131.928 139.891C132.368 140.187 132.63 140.384 132.604 140.43C132.578 140.47 132.276 140.345 131.804 140.101C131.528 139.957 131.266 139.818 130.997 139.68C130.931 139.66 130.938 139.66 130.879 139.693C130.82 139.733 130.748 139.786 130.695 139.845C130.577 139.963 130.479 140.108 130.419 140.272C130.288 140.601 130.334 140.963 130.479 141.24C130.623 141.516 130.846 141.7 131.069 141.799C131.522 141.99 131.856 141.884 131.869 141.944Z" fill="#263238"/>
<path d="M131.39 135.127C131.357 135.127 131.364 134.851 131.226 134.39C131.095 133.936 130.78 133.272 130.098 132.765C129.435 132.258 128.353 131.975 127.31 132.37C126.273 132.732 125.381 133.837 125.394 135.127C125.381 136.417 126.273 137.522 127.31 137.884C128.353 138.279 129.435 137.996 130.098 137.489C130.78 136.983 131.101 136.318 131.226 135.864C131.364 135.403 131.357 135.127 131.39 135.127C131.403 135.127 131.41 135.193 131.416 135.324C131.423 135.456 131.41 135.653 131.357 135.897C131.259 136.384 130.964 137.108 130.242 137.68C129.547 138.253 128.359 138.595 127.198 138.18C126.044 137.799 125.033 136.568 125.047 135.127C125.033 133.686 126.044 132.456 127.198 132.074C128.366 131.653 129.547 131.995 130.242 132.574C130.964 133.147 131.259 133.877 131.357 134.357C131.41 134.601 131.423 134.798 131.416 134.93C131.41 135.061 131.403 135.127 131.39 135.127Z" fill="#263238"/>
<path d="M138.757 134.837C138.724 134.837 138.724 134.568 138.6 134.12C138.475 133.679 138.167 133.034 137.498 132.541C136.855 132.047 135.799 131.778 134.782 132.159C133.772 132.508 132.906 133.587 132.919 134.844C132.906 136.101 133.778 137.173 134.782 137.529C135.799 137.91 136.855 137.64 137.498 137.147C138.167 136.653 138.475 136.009 138.6 135.568C138.731 135.107 138.724 134.837 138.757 134.837C138.77 134.837 138.777 134.903 138.783 135.035C138.79 135.16 138.777 135.351 138.731 135.594C138.639 136.068 138.351 136.772 137.649 137.338C136.973 137.897 135.818 138.233 134.677 137.825C133.549 137.45 132.565 136.252 132.578 134.844C132.565 133.436 133.549 132.238 134.677 131.863C135.812 131.455 136.966 131.791 137.649 132.35C138.351 132.909 138.639 133.62 138.731 134.094C138.783 134.331 138.79 134.522 138.783 134.653C138.777 134.772 138.77 134.837 138.757 134.837Z" fill="#263238"/>
<path d="M132.748 134.16C132.683 134.226 132.387 134.035 131.994 134.048C131.6 134.048 131.318 134.252 131.246 134.186C131.154 134.14 131.43 133.712 131.987 133.699C132.545 133.693 132.833 134.107 132.748 134.16Z" fill="#263238"/>
<path d="M125.408 134.693C125.467 134.772 124.889 135.291 124.128 135.864C123.367 136.436 122.698 136.838 122.646 136.759C122.587 136.68 123.164 136.16 123.925 135.587C124.686 135.015 125.349 134.614 125.408 134.693Z" fill="#263238"/>
<path d="M186.298 134.982C186.298 135.074 178.707 135.153 169.347 135.153C159.986 135.153 152.396 135.074 152.396 134.982C152.396 134.89 159.986 134.811 169.347 134.811C178.707 134.811 186.298 134.883 186.298 134.982Z" fill="#263238"/>
<path d="M170.619 138.542C170.619 138.634 166.591 138.713 161.619 138.713C156.647 138.713 152.619 138.634 152.619 138.542C152.619 138.45 156.647 138.371 161.619 138.371C166.591 138.364 170.619 138.443 170.619 138.542Z" fill="#263238"/>
<path d="M287.847 161.269C287.847 161.269 296.854 165.671 300.022 177.041C303.189 188.412 312.872 218.022 312.872 218.022C312.872 218.022 318.41 224.556 319.006 229.392C319.597 234.229 318.416 245.934 316.632 248.118C314.853 250.304 312.315 249.941 312.315 249.941L289.007 247.724L279.831 186.082L287.847 161.269Z" fill="url(#paint2_linear_808:2975)"/>
<path d="M210.779 160.196C210.779 160.196 194.116 165.441 189.964 170.001L203.609 233.676L203.393 253.764H282.402C282.402 252.771 283.109 187.063 283.109 187.063L287.86 161.275L259.776 156.315L254.239 151.952L222.993 153.538L218.245 158.302L210.779 160.196Z" fill="url(#paint3_linear_808:2975)"/>
<g opacity="0.3">
<path opacity="0.3" d="M217.11 215.436C216.867 214.896 216.52 214.311 215.942 214.192C214.991 213.994 214.355 215.126 214.033 216.042C211.468 223.332 208.07 230.036 203.655 236.366L203.452 246.144C208.057 242.255 212.597 238.091 215.536 232.821C218.461 227.549 219.589 220.937 217.11 215.436Z" fill="black"/>
</g>
<path d="M189.958 170.001C189.958 170.001 184.467 177.509 182.185 182.411C179.902 187.312 161.01 228.477 159.873 232.729C158.732 236.979 155.8 250.369 164.433 253.475H182.185L200.001 217.331L200.914 175.384L189.958 170.001Z" fill="url(#paint4_linear_808:2975)"/>
<path d="M183.326 227.366C183.3 227.392 182.932 227.017 182.111 226.549C181.299 226.089 180.026 225.556 178.387 225.194C177.566 225.017 176.655 224.873 175.671 224.812C174.687 224.753 173.63 224.766 172.554 225.017C170.402 225.497 168.264 226.866 166.579 228.781C164.866 230.695 163.817 232.959 163.193 235.091C162.563 237.228 162.295 239.236 162.124 240.914C161.96 242.599 161.895 243.967 161.835 244.915C161.809 245.355 161.782 245.717 161.77 246.007C161.751 246.256 161.736 246.388 161.724 246.388C161.711 246.388 161.705 246.256 161.705 246.007C161.705 245.717 161.705 245.355 161.711 244.915C161.73 243.967 161.757 242.593 161.887 240.894C162.025 239.202 162.274 237.176 162.892 234.999C163.501 232.834 164.571 230.51 166.323 228.55C168.048 226.589 170.251 225.187 172.489 224.707C173.605 224.458 174.693 224.451 175.69 224.529C176.687 224.602 177.612 224.76 178.439 224.957C180.099 225.353 181.37 225.925 182.178 226.432C182.578 226.688 182.873 226.918 183.057 227.09C183.24 227.26 183.332 227.358 183.326 227.366Z" fill="#263238"/>
<path d="M174.909 220.166C174.909 220.14 175.119 220.107 175.506 220.067C175.893 220.021 176.458 220.008 177.153 220.048C177.848 220.082 178.675 220.199 179.574 220.411C180.466 220.633 181.437 220.962 182.4 221.417C183.359 221.884 184.224 222.431 184.959 222.988C185.687 223.562 186.298 224.128 186.763 224.654C187.228 225.174 187.577 225.62 187.781 225.949C187.99 226.278 188.101 226.463 188.082 226.477C188.03 226.517 187.55 225.799 186.585 224.818C186.108 224.325 185.49 223.785 184.768 223.246C184.035 222.714 183.187 222.186 182.25 221.733C181.305 221.285 180.367 220.962 179.494 220.725C178.615 220.503 177.815 220.364 177.133 220.304C175.769 220.159 174.909 220.233 174.909 220.166Z" fill="#263238"/>
<path d="M190.955 218.186C190.948 218.213 190.659 218.186 190.136 218.121C189.61 218.054 188.849 217.976 187.911 217.903C186.035 217.759 183.424 217.725 180.564 218.069C177.71 218.417 175.179 219.068 173.387 219.647C172.489 219.938 171.767 220.194 171.275 220.384C170.783 220.569 170.5 220.661 170.494 220.642C170.487 220.621 170.743 220.483 171.229 220.259C171.708 220.028 172.416 219.739 173.316 219.416C175.1 218.773 177.645 218.075 180.531 217.725C183.411 217.384 186.055 217.457 187.938 217.66C188.882 217.759 189.644 217.878 190.161 217.983C190.68 218.1 190.961 218.167 190.955 218.186Z" fill="#263238"/>
<path d="M241.526 183.016C241.519 183.022 241.461 182.951 241.342 182.798C241.218 182.628 241.054 182.41 240.856 182.147C240.424 181.543 239.82 180.707 239.072 179.667C237.537 177.496 235.406 174.475 232.886 170.916L233.162 170.876C232.205 173.693 231.148 176.805 230.04 180.074L229.967 180.279L229.791 180.16C229.672 180.088 229.548 180.003 229.423 179.923C227.953 178.989 226.655 177.863 225.56 176.646C224.463 175.422 223.552 174.12 222.797 172.817C221.289 170.204 220.376 167.632 219.76 165.453C219.143 163.27 218.822 161.453 218.611 160.21C218.507 159.611 218.429 159.137 218.362 158.775C218.33 158.611 218.297 158.492 218.278 158.407C218.245 158.334 218.232 158.288 218.238 158.288C218.31 158.255 218.5 158.947 218.743 160.189C218.999 161.428 219.353 163.23 219.995 165.395C220.64 167.553 221.563 170.099 223.073 172.666C223.827 173.949 224.726 175.225 225.809 176.43C226.898 177.62 228.17 178.726 229.607 179.64C229.731 179.72 229.856 179.799 229.967 179.871L229.718 179.963C230.84 176.692 231.902 173.586 232.867 170.778L232.965 170.481L233.143 170.738C235.616 174.324 237.715 177.371 239.223 179.561C239.945 180.621 240.516 181.476 240.935 182.094C241.12 182.371 241.264 182.595 241.381 182.773C241.48 182.93 241.532 183.01 241.526 183.016Z" fill="#263238"/>
<g opacity="0.3">
<path opacity="0.3" d="M262.092 213.41C261.357 220.772 262.977 228.353 266.658 234.762C270.332 241.177 275.723 246.889 282.435 249.961C282.651 243.427 282.337 235.73 282.552 229.194L262.092 213.41Z" fill="black"/>
</g>
<path d="M261.351 204.81C261.351 204.81 258.484 205.606 260.635 211.508C262.787 217.404 263.503 217.048 264.939 222.568C266.375 228.083 268.048 233.123 270.561 236.241C273.073 239.361 282.402 245.717 282.402 245.717L290.772 237.802C290.772 237.802 289.395 231.899 289.723 227.892C290.05 223.884 290.89 214.047 290.772 212.369C290.655 210.692 288.857 206.612 288.857 206.612V203.823L284.554 190.537C284.554 190.537 282.159 189.458 281.326 193.295L279.89 189.221C279.89 189.221 277.62 188.859 277.023 193.538C276.425 198.216 277.501 204.691 277.501 204.691L276.308 212.851L274.517 218.364L272.962 218.601C272.962 218.601 270.619 217.962 269.34 213.54C268.048 209.125 264.579 203.848 261.351 204.81Z" fill="#FFBE9D"/>
<path d="M287.964 225.667C287.958 225.667 287.945 225.562 287.925 225.365C287.912 225.135 287.891 224.845 287.866 224.483C287.82 223.68 287.761 222.569 287.688 221.18C287.558 218.318 287.38 214.33 287.171 209.678L287.211 209.777C286.823 209.317 286.141 209.179 285.517 209.336C284.881 209.487 284.317 209.883 283.963 210.474C283.235 211.652 283.189 213.192 282.965 214.68C282.513 218.041 282.08 221.239 281.686 224.16C281.489 225.615 281.28 227.004 280.991 228.286C280.716 229.569 280.329 230.74 279.954 231.788C279.588 232.834 279.259 233.781 279.056 234.636C278.853 235.491 278.767 236.241 278.786 236.861C278.813 238.098 279.174 238.729 279.115 238.743C279.102 238.749 279.035 238.59 278.912 238.282C278.813 237.966 278.675 237.492 278.65 236.867C278.61 236.241 278.675 235.466 278.866 234.596C279.056 233.728 279.37 232.767 279.724 231.715C280.086 230.663 280.453 229.51 280.716 228.234C280.984 226.964 281.181 225.583 281.372 224.129C281.759 221.207 282.178 218.008 282.624 214.646C282.73 213.896 282.808 213.159 282.94 212.415C283.07 211.679 283.275 210.942 283.681 210.311C284.062 209.665 284.73 209.192 285.439 209.026C286.141 208.85 286.974 209.007 287.453 209.586L287.485 209.632V209.684C287.642 214.337 287.78 218.324 287.879 221.193C287.912 222.582 287.945 223.693 287.964 224.504C287.971 224.865 287.971 225.155 287.971 225.384C287.977 225.569 287.971 225.667 287.964 225.667Z" fill="#EB996E"/>
<path d="M283.386 210.554C283.365 210.56 283.235 210.296 283.032 209.804C282.835 209.309 282.571 208.58 282.329 207.652C282.086 206.731 281.857 205.606 281.725 204.349C281.66 203.716 281.614 203.046 281.692 202.348C281.765 201.65 281.968 200.914 282.414 200.288C282.795 199.749 283.333 199.315 283.943 199.137L284.074 199.098L284.139 199.217C285.354 201.361 286.403 203.257 287.144 204.619C287.485 205.256 287.768 205.791 288.004 206.231C288.201 206.612 288.299 206.822 288.279 206.836C288.26 206.849 288.128 206.652 287.899 206.29C287.642 205.868 287.328 205.349 286.953 204.73C286.16 203.395 285.071 201.526 283.844 199.387L284.041 199.466C283.517 199.624 283.038 199.999 282.697 200.493C282.297 201.059 282.1 201.73 282.027 202.388C281.956 203.052 281.987 203.704 282.041 204.322C282.152 205.566 282.349 206.677 282.565 207.599C282.775 208.521 282.998 209.257 283.155 209.764C283.321 210.265 283.411 210.548 283.386 210.554Z" fill="#EB996E"/>
<path d="M281.384 211.64C281.359 211.64 281.332 211.369 281.306 210.877C281.286 210.311 281.254 209.613 281.221 208.79C281.162 207.027 281.11 204.592 281.07 201.902C281.049 199.211 280.945 196.769 281.175 194.999C281.286 194.117 281.464 193.413 281.621 192.945C281.778 192.472 281.91 192.235 281.929 192.241C281.987 192.262 281.562 193.281 281.411 195.032C281.246 196.776 281.384 199.211 281.405 201.902C281.443 204.592 281.457 207.027 281.457 208.79C281.451 209.613 281.437 210.311 281.43 210.883C281.424 211.363 281.411 211.633 281.384 211.64Z" fill="#EB996E"/>
<path d="M274.306 233.755C274.26 233.716 274.779 233.097 275.428 231.972C275.757 231.413 276.092 230.715 276.399 229.925C276.695 229.122 276.963 228.221 277.147 227.253C277.318 226.279 277.377 225.346 277.377 224.489C277.363 223.634 277.291 222.865 277.18 222.232C276.963 220.956 276.688 220.193 276.747 220.174C276.766 220.166 276.852 220.35 276.983 220.694C277.122 221.036 277.272 221.549 277.417 222.186C277.56 222.831 277.658 223.615 277.691 224.483C277.712 225.359 277.652 226.319 277.482 227.312C277.298 228.307 277.015 229.227 276.695 230.036C276.36 230.839 275.993 231.543 275.631 232.096C275.277 232.649 274.957 233.077 274.706 233.347C274.471 233.623 274.327 233.768 274.306 233.755Z" fill="#EB996E"/>
<path d="M289.001 229.629L296.263 232.154C296.263 232.154 303.197 228.556 307.979 232.154C312.761 235.754 316.913 245.237 315.602 249.072C315.602 249.072 312.302 253.158 309.79 253.757C307.276 254.356 297.515 251.987 293.456 251.125C289.381 250.264 282.389 245.704 282.389 245.704L289.001 229.629Z" fill="#FFBE9D"/>
<path d="M289.893 240.361C289.867 240.361 289.84 240.13 289.815 239.715C289.788 239.223 289.748 238.636 289.709 237.959C289.631 236.472 289.533 234.42 289.499 232.142C289.466 229.866 289.533 227.806 289.671 226.319C289.736 225.575 289.815 224.977 289.886 224.562C289.958 224.148 290.012 223.923 290.037 223.93C290.09 223.938 289.978 224.852 289.905 226.333C289.834 227.813 289.807 229.866 289.84 232.136C289.88 234.359 289.92 236.373 289.945 237.953C289.951 238.697 289.951 239.302 289.939 239.715C289.939 240.13 289.92 240.361 289.893 240.361Z" fill="#EB996E"/>
<path d="M313.843 231.866C313.791 231.918 313.044 230.879 311.429 229.682C309.834 228.483 307.251 227.207 304.194 227.037C301.131 226.872 298.42 227.852 296.709 228.865C294.97 229.879 294.117 230.826 294.071 230.774C294.059 230.761 294.262 230.518 294.668 230.122C295.082 229.728 295.719 229.202 296.584 228.661C298.296 227.576 301.064 226.524 304.213 226.7C307.362 226.878 309.999 228.228 311.58 229.491C312.38 230.122 312.964 230.721 313.324 231.155C313.686 231.597 313.862 231.859 313.843 231.866Z" fill="#263238"/>
<path d="M312.912 225.792C312.866 225.865 311.895 224.878 309.889 224.122C307.913 223.345 304.85 222.989 301.707 223.877C300.139 224.319 298.703 224.944 297.476 225.641C296.249 226.345 295.227 227.115 294.413 227.812C293.599 228.51 292.977 229.122 292.55 229.543C292.123 229.971 291.888 230.201 291.867 230.189C291.855 230.174 292.058 229.912 292.458 229.451C292.858 228.997 293.456 228.359 294.262 227.628C295.062 226.899 296.086 226.096 297.325 225.365C298.565 224.642 300.022 223.99 301.623 223.542C304.843 222.634 307.986 223.043 309.979 223.891C310.99 224.305 311.738 224.786 312.217 225.155C312.466 225.331 312.63 225.503 312.749 225.608C312.86 225.727 312.919 225.786 312.912 225.792Z" fill="#263238"/>
<path d="M312.971 220.529C312.952 220.594 311.685 220.206 309.573 219.923C308.518 219.772 307.251 219.686 305.846 219.686C304.443 219.707 302.902 219.825 301.301 220.095C299.708 220.384 298.217 220.805 296.886 221.266C295.567 221.746 294.407 222.259 293.469 222.766C291.586 223.76 290.523 224.556 290.483 224.504C290.471 224.483 290.726 224.28 291.212 223.917C291.448 223.733 291.75 223.523 292.11 223.299C292.472 223.075 292.878 222.798 293.35 222.555C294.281 222.023 295.449 221.482 296.775 220.977C298.113 220.495 299.622 220.061 301.236 219.766C302.856 219.489 304.416 219.378 305.84 219.378C307.264 219.397 308.543 219.508 309.6 219.693C310.13 219.759 310.603 219.883 311.024 219.969C311.443 220.055 311.797 220.154 312.079 220.239C312.663 220.403 312.977 220.51 312.971 220.529Z" fill="#263238"/>
<path d="M257.322 156.098C257.322 156.098 257.657 156.729 257.827 158.032C258.005 159.329 257.978 161.276 257.552 163.685C257.335 164.888 257.048 166.211 256.614 167.627C256.162 169.041 255.479 170.488 254.705 172.002C253.143 175.028 251.169 178.325 248.893 181.845L248.623 182.26V181.766C248.617 179.444 248.617 177.002 248.61 174.463L248.866 174.588C246.912 176.166 244.859 177.832 242.74 179.549L242.792 179.471C241.375 183.984 240.437 189.012 240.069 194.242C239.472 202.25 239.951 209.909 240.332 216.857C240.653 223.813 240.864 230.083 241.08 235.34C241.289 240.604 241.48 244.856 241.637 247.796C241.723 249.25 241.788 250.388 241.834 251.178C241.861 251.553 241.88 251.843 241.894 252.06C241.907 252.258 241.9 252.362 241.9 252.362C241.9 252.362 241.88 252.264 241.854 252.067C241.834 251.857 241.802 251.56 241.762 251.191C241.689 250.422 241.599 249.277 241.5 247.81C241.303 244.869 241.073 240.619 240.837 235.355C240.6 230.091 240.326 223.825 240.01 216.877C239.616 209.936 239.124 202.256 239.721 194.222C240.096 188.972 241.034 183.918 242.47 179.378L242.484 179.332L242.522 179.299C244.641 177.587 246.701 175.93 248.657 174.351L248.912 174.146V174.475C248.906 177.009 248.906 179.45 248.899 181.78L248.63 181.701C253.137 174.693 256.805 168.599 257.368 163.671C257.82 161.283 257.873 159.356 257.722 158.059C257.657 157.407 257.532 156.927 257.454 156.598C257.362 156.262 257.322 156.098 257.322 156.098Z" fill="#263238"/>
<path d="M245.554 240.972L245.318 240.966C244.367 240.991 243.521 241.861 243.521 242.814C243.521 243.769 244.361 244.644 245.305 244.677C246.256 244.71 247.154 243.893 247.214 242.946C247.286 241.993 246.498 241.064 245.554 240.972Z" fill="white"/>
<path d="M245.554 215.614L245.318 215.606C244.367 215.633 243.521 216.501 243.521 217.456C243.521 218.41 244.361 219.286 245.305 219.318C246.256 219.351 247.154 218.536 247.214 217.588C247.286 216.633 246.498 215.705 245.554 215.614Z" fill="white"/>
<path d="M245.311 192.926C246.262 192.959 247.162 192.142 247.22 191.195C247.286 190.247 246.498 189.319 245.554 189.227L245.318 189.221C244.367 189.248 243.521 190.116 243.521 191.069C243.521 192.016 244.361 192.892 245.311 192.926Z" fill="white"/>
<path d="M216.985 126.382C214.682 123.829 212.366 121.243 210.687 118.242C209.008 115.242 208.011 111.735 208.568 108.34C208.891 106.352 209.736 104.464 209.868 102.457C210.051 99.6933 208.897 96.8048 209.868 94.2189C211.397 90.1722 216.828 89.5471 220.121 86.7506C222.686 84.5725 223.931 81.039 226.76 79.2033C229.226 77.6044 232.394 77.6373 235.301 78.0518C238.207 78.4663 241.132 79.2033 244.045 78.8085C246.117 78.5256 248.073 77.6899 250.106 77.1832C252.14 76.6765 254.404 76.5449 256.215 77.5977C258.024 78.6505 259.041 81.2299 257.854 82.9604C261.225 81.4009 265.51 84.0396 266.434 87.6454C267.359 91.2512 265.51 95.1531 262.649 97.5286C259.789 99.9106 256.096 101.016 252.448 101.707C242.116 103.661 230.911 102.556 222.009 96.9496" fill="#263238"/>
<path d="M253.309 161.217C252.802 157.295 252.39 154.025 252.363 153.617C252.363 153.617 265.431 150.669 264.709 137.417C264.361 131.015 262.571 117.875 260.819 106.011C258.936 93.272 247.593 84.1258 234.782 84.9812L233.51 85.0667C219.826 86.7907 213.645 99.4111 215.745 113.084L223.125 158.927C223.125 158.927 226.274 169.067 233.018 170.825L241.52 183.01L242.923 177.765L249.26 172.233C249.26 172.233 250.717 170.653 252.383 167.566C253.761 165.047 253.472 162.447 253.309 161.217Z" fill="#FFBE9D"/>
<path d="M252.369 153.426C252.369 153.426 244.071 154.67 234.828 149.676C234.828 149.676 239.532 158.934 252.626 156.854L252.369 153.426Z" fill="#EB996E"/>
<path d="M256.575 117.401C256.68 118.394 255.92 119.302 254.883 119.434C253.847 119.559 252.928 118.855 252.823 117.861C252.725 116.868 253.479 115.953 254.509 115.828C255.551 115.697 256.47 116.407 256.575 117.401Z" fill="#263238"/>
<path d="M258.418 112.702C258.202 112.965 256.7 111.998 254.672 112.143C252.645 112.255 251.222 113.4 250.985 113.17C250.868 113.064 251.077 112.604 251.695 112.09C252.304 111.577 253.361 111.044 254.626 110.965C255.893 110.886 256.988 111.281 257.631 111.722C258.288 112.15 258.524 112.584 258.418 112.702Z" fill="#263238"/>
<path d="M237.406 118.776C237.511 119.769 236.751 120.677 235.714 120.809C234.678 120.934 233.759 120.23 233.654 119.236C233.556 118.243 234.31 117.328 235.348 117.203C236.384 117.072 237.308 117.782 237.406 118.776Z" fill="#263238"/>
<path d="M238.503 114.419C238.285 114.682 236.784 113.715 234.756 113.86C232.729 113.972 231.305 115.117 231.07 114.886C230.951 114.781 231.161 114.32 231.778 113.807C232.381 113.294 233.445 112.761 234.703 112.682C235.97 112.603 237.065 112.998 237.708 113.439C238.365 113.866 238.608 114.301 238.503 114.419Z" fill="#263238"/>
<path d="M246.866 129.02C246.846 128.908 248.093 128.599 250.12 128.204C250.631 128.119 251.117 127.981 251.182 127.619C251.28 127.237 251.025 126.691 250.736 126.099C250.166 124.875 249.569 123.592 248.939 122.243C246.433 116.748 244.583 112.221 244.806 112.123C245.029 112.024 247.233 116.393 249.739 121.888C250.342 123.243 250.92 124.533 251.471 125.77C251.707 126.349 252.088 126.994 251.877 127.79C251.766 128.184 251.406 128.494 251.077 128.606C250.75 128.731 250.461 128.757 250.204 128.79C248.158 129.04 246.886 129.132 246.866 129.02Z" fill="#263238"/>
<path d="M238.488 106.405C238.325 106.971 236.285 106.846 233.924 107.293C231.554 107.695 229.678 108.524 229.331 108.044C229.173 107.813 229.475 107.274 230.216 106.681C230.951 106.096 232.144 105.504 233.562 105.247C234.979 104.997 236.304 105.135 237.196 105.431C238.088 105.734 238.561 106.142 238.488 106.405Z" fill="#263238"/>
<path d="M257.277 106.859C256.95 107.346 255.518 106.958 253.839 107.05C252.153 107.083 250.757 107.57 250.395 107.109C250.238 106.886 250.428 106.405 251.025 105.925C251.609 105.451 252.612 105.024 253.767 104.978C254.921 104.938 255.951 105.287 256.569 105.721C257.199 106.162 257.421 106.623 257.277 106.859Z" fill="#263238"/>
<path d="M217.477 122.822C217.248 122.736 208.227 120.736 209.119 129.777C210.013 138.812 219.773 135.87 219.767 135.607C219.754 135.344 217.477 122.822 217.477 122.822Z" fill="#FFBE9D"/>
<path d="M215.772 132.64C215.733 132.613 215.628 132.765 215.371 132.916C215.122 133.061 214.69 133.186 214.204 133.054C213.22 132.798 212.268 131.363 212.065 129.738C211.96 128.915 212.058 128.119 212.282 127.442C212.492 126.751 212.873 126.251 213.344 126.119C213.811 125.961 214.177 126.218 214.315 126.461C214.46 126.705 214.42 126.889 214.472 126.895C214.499 126.915 214.65 126.724 214.545 126.356C214.493 126.178 214.361 125.981 214.131 125.823C213.895 125.665 213.574 125.612 213.239 125.678C212.55 125.797 211.987 126.501 211.738 127.244C211.449 127.994 211.324 128.896 211.443 129.817C211.678 131.633 212.774 133.245 214.119 133.489C214.768 133.594 215.28 133.35 215.529 133.107C215.779 132.857 215.804 132.653 215.772 132.64Z" fill="#EB996E"/>
<path d="M260.157 93.6668C259.54 97.266 252.265 100.556 246.237 100.385C240.68 100.22 237.931 97.4568 233.891 95.4894C231.332 94.2458 231.332 94.2458 227.868 94.8117C225.06 95.2723 223.611 98.5886 222.037 100.964C225.035 107.524 223.821 115.15 222.554 122.257C222.418 123.04 222.24 123.889 221.643 124.415C220.632 125.31 218.986 124.777 217.996 123.862C216.401 122.402 215.674 120.224 215.155 118.125C213.968 113.334 213.509 108.314 214.263 103.432C215.017 98.5491 217.031 93.8115 220.358 90.1662C224.509 85.6128 230.585 82.9874 236.732 82.6716C242.878 82.3557 249.051 84.2639 254.194 87.646C256.575 89.2055 258.805 91.1466 260.157 93.6668Z" fill="#263238"/>
<path d="M248.198 133.593C246.67 132.876 245.133 132.159 243.605 131.448C243.343 131.323 243.061 131.198 242.772 131.238C242.445 131.284 242.189 131.527 241.978 131.777C240.916 133.074 240.647 135.021 241.467 136.482C242.294 137.943 244.229 138.713 245.776 138.068C247.404 137.39 248.198 135.495 248.322 133.732L248.198 133.593Z" fill="#EB996E"/>
<path d="M245.921 138.397C245.935 138.437 245.711 138.569 245.253 138.667C244.8 138.753 244.091 138.792 243.278 138.523C242.47 138.266 241.559 137.634 240.994 136.621C240.425 135.634 240.214 134.246 240.714 132.989C240.948 132.364 241.323 131.811 241.775 131.377C242.005 131.159 242.248 130.975 242.523 130.811C242.667 130.732 242.845 130.653 243.054 130.64C243.258 130.627 243.442 130.679 243.586 130.745C243.888 130.877 244.078 131.021 244.3 131.153C244.518 131.285 244.721 131.416 244.924 131.541C245.318 131.791 245.692 132.022 246.04 132.245C247.405 133.114 248.217 133.686 248.171 133.772C248.125 133.851 247.221 133.423 245.797 132.666C245.437 132.469 245.049 132.258 244.635 132.035C244.426 131.916 244.21 131.798 243.992 131.679C243.777 131.561 243.534 131.409 243.343 131.337C243.134 131.265 243.042 131.271 242.839 131.383C242.635 131.508 242.418 131.679 242.234 131.864C241.855 132.239 241.545 132.706 241.342 133.239C240.923 134.298 241.074 135.45 241.539 136.325C241.999 137.207 242.74 137.786 243.435 138.075C244.137 138.371 244.78 138.411 245.213 138.411C245.659 138.391 245.902 138.351 245.921 138.397Z" fill="#263238"/>
<path d="M244.472 117.631C244.419 117.638 244.478 116.789 244.111 115.341C243.75 113.927 242.805 111.841 240.68 110.222C239.623 109.432 238.298 108.768 236.77 108.498C235.255 108.241 233.537 108.288 231.91 108.913C231.089 109.202 230.296 109.63 229.574 110.176C228.839 110.709 228.171 111.373 227.618 112.143C226.484 113.663 225.841 115.611 225.822 117.618C225.841 119.625 226.477 121.579 227.618 123.099C228.171 123.869 228.839 124.533 229.574 125.073C230.302 125.619 231.089 126.054 231.91 126.336C233.537 126.962 235.255 127.008 236.77 126.751C238.298 126.481 239.623 125.817 240.68 125.027C242.805 123.415 243.75 121.329 244.111 119.908C244.478 118.467 244.419 117.624 244.472 117.631C244.478 117.631 244.478 117.684 244.478 117.782C244.478 117.908 244.472 118.052 244.472 118.23C244.472 118.427 244.465 118.671 244.413 118.96C244.373 119.25 244.34 119.579 244.235 119.947C244.084 120.684 243.75 121.559 243.218 122.494C242.681 123.422 241.901 124.395 240.825 125.224C239.755 126.047 238.396 126.744 236.822 127.034C235.262 127.31 233.491 127.271 231.803 126.639C230.951 126.35 230.131 125.902 229.377 125.343C228.617 124.79 227.921 124.106 227.35 123.31C226.169 121.737 225.5 119.717 225.48 117.631C225.5 115.545 226.169 113.525 227.35 111.953C227.921 111.156 228.617 110.472 229.377 109.919C230.131 109.36 230.951 108.913 231.803 108.623C233.497 107.985 235.262 107.945 236.822 108.228C238.396 108.518 239.755 109.222 240.825 110.038C241.901 110.867 242.681 111.841 243.218 112.768C243.75 113.703 244.084 114.578 244.235 115.315C244.34 115.677 244.373 116.012 244.413 116.302C244.459 116.592 244.472 116.835 244.472 117.032C244.472 117.21 244.478 117.361 244.478 117.48C244.478 117.579 244.478 117.631 244.472 117.631Z" fill="#263238"/>
<path d="M266.932 116.742C266.88 116.749 266.94 115.92 266.578 114.512C266.224 113.13 265.305 111.097 263.233 109.531C262.209 108.761 260.917 108.11 259.428 107.853C257.952 107.603 256.28 107.649 254.693 108.261C253.891 108.537 253.124 108.958 252.415 109.491C251.701 110.011 251.052 110.663 250.514 111.413C249.404 112.893 248.782 114.788 248.762 116.749C248.782 118.71 249.404 120.605 250.507 122.085C251.045 122.836 251.694 123.48 252.409 124.007C253.118 124.54 253.885 124.961 254.686 125.237C256.273 125.843 257.94 125.895 259.422 125.645C260.911 125.382 262.203 124.731 263.226 123.967C265.299 122.395 266.218 120.368 266.566 118.986C266.94 117.565 266.88 116.736 266.932 116.742C266.946 116.742 266.946 116.946 266.94 117.328C266.94 117.519 266.932 117.762 266.888 118.039C266.848 118.322 266.815 118.644 266.716 118.999C266.396 120.407 265.496 122.507 263.39 124.145C262.347 124.948 261.022 125.632 259.487 125.908C257.965 126.178 256.24 126.139 254.594 125.52C253.767 125.237 252.967 124.803 252.233 124.25C251.491 123.711 250.815 123.046 250.258 122.27C249.103 120.736 248.454 118.769 248.441 116.736C248.46 114.703 249.109 112.735 250.264 111.202C250.822 110.426 251.498 109.755 252.239 109.221C252.974 108.675 253.774 108.241 254.6 107.958C256.246 107.34 257.971 107.3 259.493 107.57C261.028 107.853 262.353 108.537 263.398 109.333C265.502 110.972 266.402 113.064 266.723 114.479C266.821 114.834 266.861 115.157 266.894 115.44C266.94 115.716 266.953 115.959 266.946 116.15C266.946 116.538 266.946 116.742 266.932 116.742Z" fill="#263238"/>
<path d="M248.604 114.663C248.565 114.703 248.349 114.519 247.955 114.328C247.562 114.137 246.971 113.953 246.301 113.966C245.64 113.972 245.049 114.183 244.662 114.387C244.268 114.591 244.065 114.782 244.025 114.749C243.992 114.722 244.143 114.459 244.537 114.183C244.924 113.906 245.554 113.637 246.295 113.624C247.03 113.61 247.673 113.854 248.073 114.117C248.466 114.38 248.63 114.637 248.604 114.663Z" fill="#263238"/>
<path d="M226.222 116.288C226.28 116.367 224.438 117.841 222.108 119.578C219.779 121.322 217.851 122.671 217.792 122.599C217.732 122.52 219.576 121.046 221.905 119.309C224.234 117.565 226.169 116.209 226.222 116.288Z" fill="#263238"/>
<g opacity="0.3">
<path opacity="0.3" d="M218.461 159.11C217.55 168.039 220.935 177.469 228.072 182.878C228.629 183.305 229.337 183.72 229.994 183.483C230.453 183.318 230.748 182.878 230.991 182.45C233.024 178.917 233.707 175.015 233.123 170.975C231.994 173.961 231.024 176.891 229.882 180.015C223.657 176.233 219.78 168.178 218.461 159.11Z" fill="black"/>
</g>
<path opacity="0.3" d="M242.635 179.416L247.876 177.494L248.742 186.385C248.742 186.385 254.397 176.048 256.738 171.329C259.081 166.612 257.873 158.288 257.873 158.288C257.873 158.288 258.713 165.539 253.045 174.784L248.768 181.759V174.455L242.635 179.416Z" fill="black"/>
<g opacity="0.3">
<path opacity="0.3" d="M181.68 224.595C179.343 223.489 176.655 223.338 174.088 223.64C171.379 223.956 168.657 224.792 166.532 226.509C164.407 228.227 162.969 230.939 163.233 233.663L163.495 233.701C165.325 228.74 168.959 225.128 173.649 224.687C178.34 224.252 182.913 226.345 186.133 229.793C185.819 227.213 184.021 225.7 181.68 224.595Z" fill="black"/>
</g>
<g opacity="0.3">
<path opacity="0.3" d="M314.185 229.669C312.426 227.766 309.96 226.616 307.414 226.168C302.946 225.384 298.152 226.779 294.787 229.833L295.784 229.017C298.322 227.523 301.248 226.641 304.194 226.727C307.133 226.813 310.077 227.905 312.21 229.938C314.172 231.807 315.345 234.34 316.467 236.807C316.913 234.261 315.943 231.57 314.185 229.669Z" fill="black"/>
</g>
<path d="M280.406 188.386C280.387 188.379 280.473 188.123 280.643 187.669C280.846 187.149 281.095 186.51 281.39 185.754C282.027 184.142 282.893 181.91 283.819 179.437C284.736 176.956 285.53 174.699 286.101 173.061C286.371 172.298 286.599 171.653 286.783 171.127C286.947 170.672 287.052 170.422 287.072 170.429C287.091 170.435 287.033 170.699 286.907 171.166C286.783 171.634 286.587 172.311 286.331 173.14C285.818 174.798 285.058 177.076 284.139 179.555C283.222 182.036 282.309 184.253 281.621 185.846C281.273 186.642 280.984 187.281 280.775 187.721C280.557 188.155 280.427 188.398 280.406 188.386Z" fill="#263238"/>
<path d="M197.705 189.03C197.614 189.05 196.899 185.919 196.111 182.036C195.324 178.153 194.761 174.995 194.851 174.976C194.943 174.955 195.659 178.088 196.446 181.971C197.234 185.852 197.797 189.01 197.705 189.03Z" fill="#263238"/>
<path d="M196.465 228.175C196.674 228.28 194.063 207.672 194.063 207.672C194.063 207.672 195.711 192.031 196.636 191.306L196.662 185.786C196.662 185.786 199.214 184.233 199.896 186.74C199.896 186.74 202.159 184.772 202.553 189.458C202.946 194.149 203.032 198.94 203.032 198.94L208.063 211.559L208.89 211.981C208.89 211.981 209.973 202.091 210.603 200.637C211.231 199.183 211.664 195.643 214.047 196.176C216.434 196.708 216.63 198.689 216.203 201.913C215.778 205.138 215.24 208.466 215.443 210.553C215.64 212.639 216.584 217.225 216.296 220.864C216.007 224.51 214.02 228.353 211.926 231.05C209.841 233.747 205.852 239.327 203.681 241.012C202.919 241.605 196.465 228.175 196.465 228.175Z" fill="#FFBE9D"/>
<path d="M199.011 211.403C198.984 211.403 198.992 211.086 199.023 210.52C199.069 209.89 199.122 209.087 199.188 208.125C199.339 206.105 199.574 203.316 199.857 200.236C200.001 198.703 200.139 197.236 200.263 195.9C200.33 195.235 200.369 194.611 200.284 194.037C200.204 193.465 199.982 192.972 199.653 192.616C198.992 191.893 198.131 191.709 197.6 191.715C197.043 191.709 196.754 191.86 196.741 191.826C196.735 191.814 196.806 191.78 196.944 191.721C197.089 191.669 197.305 191.604 197.593 191.583C198.158 191.543 199.076 191.688 199.831 192.459C200.204 192.84 200.468 193.393 200.558 193.999C200.664 194.611 200.625 195.263 200.572 195.933C200.453 197.275 200.323 198.735 200.191 200.275C199.909 203.356 199.634 206.139 199.423 208.152C199.312 209.106 199.22 209.909 199.149 210.533C199.082 211.093 199.03 211.403 199.011 211.403Z" fill="#EB996E"/>
<path d="M201.714 202.974C201.766 203.012 201.201 203.506 200.822 204.598C200.414 205.671 200.271 207.289 199.982 209.047C199.712 210.81 199.444 212.402 199.241 213.548C199.03 214.699 198.879 215.403 198.833 215.397C198.787 215.39 198.854 214.665 199.005 213.508C199.149 212.35 199.378 210.751 199.647 208.988C199.93 207.237 200.112 205.612 200.598 204.5C200.828 203.947 201.103 203.546 201.327 203.295C201.542 203.058 201.701 202.96 201.714 202.974Z" fill="#EB996E"/>
<path d="M199.863 186.47C199.89 186.463 199.949 186.694 200.041 187.122C200.133 187.543 200.244 188.155 200.369 188.919C200.619 190.439 200.893 192.551 201.071 194.9C201.241 197.249 201.28 199.38 201.255 200.92C201.241 201.69 201.222 202.316 201.188 202.743C201.163 203.171 201.136 203.408 201.111 203.408C201.058 203.408 201.05 202.454 201.012 200.92C200.972 199.38 200.899 197.262 200.73 194.925C200.558 192.591 200.323 190.478 200.133 188.951C199.942 187.419 199.817 186.478 199.863 186.47Z" fill="#EB996E"/>
<path d="M214.38 205.791C214.433 205.868 213.646 206.231 212.689 205.935C211.724 205.644 211.278 204.902 211.363 204.869C211.443 204.802 211.941 205.361 212.787 205.613C213.627 205.875 214.355 205.69 214.38 205.791Z" fill="#EB996E"/>
<path d="M196.748 225.608L183.451 231.214H175.527C175.527 231.214 167.693 233.67 166.486 241.032C165.279 248.402 165.109 252.192 168.553 253.1C171.997 254.007 181.726 254.114 186.547 252.507C191.369 250.902 204.002 240.677 204.002 240.677L205.223 233.28L196.748 225.608Z" fill="#FFBE9D"/>
<path d="M199.863 233.754C199.844 233.768 199.712 233.649 199.484 233.406C199.247 233.175 198.958 232.794 198.617 232.307C197.962 231.32 197.24 229.826 196.76 228.089C196.262 226.352 196.052 224.726 195.941 223.556C195.843 222.385 195.843 221.654 195.887 221.648C195.941 221.641 196.019 222.364 196.176 223.523C196.348 224.68 196.597 226.279 197.083 227.991C197.554 229.707 198.224 231.176 198.814 232.176C199.423 233.169 199.909 233.709 199.863 233.754Z" fill="#EB996E"/>
<path d="M205.656 236.09C205.585 236.065 206.181 235.051 206.41 233.228C206.523 232.326 206.508 231.228 206.253 230.05C205.997 228.873 205.44 227.662 204.626 226.53C203.82 225.392 202.907 224.405 202.147 223.45C201.373 222.496 200.755 221.568 200.349 220.726C199.943 219.883 199.752 219.141 199.681 218.621C199.614 218.1 199.641 217.811 199.66 217.811C199.725 217.798 199.706 218.988 200.566 220.614C200.985 221.423 201.615 222.318 202.39 223.246C203.163 224.181 204.082 225.168 204.909 226.325C205.742 227.477 206.326 228.753 206.569 229.971C206.818 231.188 206.797 232.326 206.653 233.248C206.508 234.175 206.253 234.893 206.043 235.367C205.945 235.604 205.847 235.782 205.774 235.899C205.702 236.038 205.662 236.096 205.656 236.09Z" fill="#EB996E"/>
<path d="M185.156 203.98C185.072 204.027 183.621 201.375 181.915 198.065C180.21 194.756 178.898 192.038 178.977 191.992C179.061 191.946 180.512 194.597 182.218 197.907C183.922 201.217 185.241 203.934 185.156 203.98Z" fill="white"/>
<path d="M206.659 179.97C206.575 179.93 207.473 177.725 208.66 175.041C209.854 172.356 210.89 170.212 210.976 170.251C211.061 170.29 210.163 172.495 208.974 175.179C207.781 177.864 206.744 180.009 206.659 179.97Z" fill="white"/>
<path d="M227.717 195.551C227.645 195.61 226.293 194.097 224.706 192.169C223.112 190.241 221.886 188.628 221.957 188.569C222.03 188.51 223.381 190.023 224.969 191.951C226.556 193.879 227.79 195.491 227.717 195.551Z" fill="white"/>
<path d="M222.87 216.983C222.79 216.929 223.808 215.39 225.139 213.548C226.471 211.705 227.612 210.258 227.685 210.317C227.763 210.37 226.747 211.91 225.415 213.752C224.09 215.594 222.947 217.042 222.87 216.983Z" fill="white"/>
<path d="M216.348 247.257C216.309 247.276 216.007 246.777 215.582 245.934C215.149 245.092 214.592 243.914 214.033 242.59C213.469 241.262 213.017 240.044 212.708 239.149C212.406 238.255 212.249 237.689 212.295 237.676C212.341 237.663 212.578 238.196 212.938 239.064C213.35 240.051 213.823 241.196 214.349 242.46C214.887 243.716 215.379 244.849 215.804 245.836C216.172 246.691 216.394 247.23 216.348 247.257Z" fill="white"/>
<path d="M234.875 234.387C234.854 234.479 233.07 234.209 230.893 233.788C228.709 233.366 226.957 232.945 226.976 232.853C226.996 232.761 228.78 233.031 230.958 233.452C233.143 233.873 234.894 234.295 234.875 234.387Z" fill="white"/>
<path d="M249.247 206.099C249.176 206.034 250.88 204.085 253.045 201.736C255.21 199.393 257.027 197.545 257.092 197.61C257.165 197.677 255.459 199.624 253.294 201.973C251.123 204.316 249.312 206.164 249.247 206.099Z" fill="white"/>
<path d="M263.699 243.822C263.626 243.881 261.507 241.42 258.962 238.321C256.418 235.222 254.416 232.661 254.489 232.603C254.561 232.544 256.679 235.004 259.225 238.103C261.771 241.203 263.771 243.762 263.699 243.822Z" fill="white"/>
<path d="M173.971 227.747C174.017 227.839 172.083 228.826 169.97 230.451C167.851 232.062 166.388 233.682 166.309 233.609C166.277 233.583 166.598 233.142 167.201 232.492C167.799 231.846 168.691 231.004 169.759 230.181C170.829 229.365 171.878 228.728 172.659 228.313C173.44 227.905 173.952 227.707 173.971 227.747Z" fill="white"/>
<path d="M179.377 213.205C179.454 213.257 178.766 214.435 177.836 215.837C176.904 217.239 176.09 218.331 176.01 218.278C175.933 218.226 176.621 217.048 177.553 215.646C178.478 214.244 179.297 213.152 179.377 213.205Z" fill="white"/>
<path d="M191.551 227.484C191.48 227.53 190.791 226.379 190.437 224.78C190.069 223.188 190.194 221.851 190.278 221.857C190.385 221.857 190.417 223.154 190.77 224.701C191.112 226.254 191.643 227.438 191.551 227.484Z" fill="white"/>
<path d="M193.356 182.135C193.369 182.227 192.24 182.47 190.831 182.669C189.42 182.872 188.266 182.958 188.252 182.866C188.239 182.774 189.368 182.53 190.779 182.332C192.188 182.128 193.343 182.042 193.356 182.135Z" fill="white"/>
<path d="M202.501 165.862C202.547 165.948 201.556 166.585 200.29 167.289C199.023 167.993 197.954 168.5 197.909 168.414C197.863 168.328 198.854 167.691 200.119 166.987C201.391 166.283 202.455 165.782 202.501 165.862Z" fill="white"/>
<path d="M228.223 172.737C228.15 172.798 227.015 171.428 225.69 169.684C224.365 167.941 223.355 166.486 223.433 166.428C223.506 166.369 224.641 167.737 225.966 169.481C227.285 171.218 228.301 172.679 228.223 172.737Z" fill="white"/>
<path d="M260.871 189.096C260.806 189.156 259.612 187.924 258.509 186.135C257.395 184.345 256.824 182.733 256.903 182.7C256.994 182.66 257.703 184.194 258.798 185.958C259.893 187.721 260.95 189.03 260.871 189.096Z" fill="white"/>
<path d="M273.336 193.216C273.42 193.255 272.817 194.781 271.984 196.617C271.151 198.461 270.409 199.921 270.317 199.881C270.233 199.842 270.836 198.314 271.67 196.479C272.503 194.637 273.25 193.176 273.336 193.216Z" fill="white"/>
<path d="M275.08 176.153C275.009 176.212 273.525 174.548 271.768 172.429C270.01 170.31 268.645 168.54 268.718 168.481C268.789 168.421 270.271 170.086 272.03 172.205C273.782 174.33 275.153 176.094 275.08 176.153Z" fill="white"/>
<path d="M256.043 162.295C255.951 162.301 255.813 160.874 255.748 159.104C255.676 157.341 255.702 155.906 255.794 155.899C255.886 155.893 256.024 157.321 256.089 159.091C256.162 160.861 256.141 162.295 256.043 162.295Z" fill="white"/>
<path d="M271.565 161.434C271.578 161.526 269.761 161.849 267.517 162.151C265.268 162.453 263.436 162.618 263.423 162.526C263.411 162.434 265.222 162.111 267.471 161.809C269.715 161.505 271.551 161.342 271.565 161.434Z" fill="white"/>
<path d="M296.006 179.444C295.922 179.483 294.833 177.397 293.567 174.785C292.307 172.172 291.35 170.014 291.434 169.974C291.52 169.936 292.608 172.021 293.875 174.634C295.135 177.246 296.092 179.404 296.006 179.444Z" fill="white"/>
<path d="M291.888 195.005C291.796 194.985 292.051 193.307 292.458 191.26C292.866 189.208 293.272 187.563 293.364 187.582C293.456 187.603 293.199 189.28 292.793 191.327C292.386 193.372 291.986 195.024 291.888 195.005Z" fill="white"/>
<path d="M303.229 207.27C303.137 207.304 302.272 205.04 301.282 202.216C300.298 199.393 299.57 197.078 299.662 197.044C299.754 197.012 300.619 199.276 301.609 202.098C302.593 204.928 303.315 207.237 303.229 207.27Z" fill="white"/>
<path d="M301.648 214.449C301.629 214.535 300.061 214.206 298.336 213.257C296.605 212.324 295.468 211.184 295.535 211.126C295.6 211.046 296.808 212.047 298.5 212.961C300.179 213.877 301.682 214.35 301.648 214.449Z" fill="white"/>
<path d="M316.172 230.807C316.088 230.847 315.562 229.845 314.997 228.575C314.434 227.305 314.047 226.247 314.132 226.207C314.218 226.167 314.742 227.167 315.307 228.437C315.87 229.707 316.258 230.767 316.172 230.807Z" fill="white"/>
<path d="M230.394 253.626C230.302 253.64 230.072 252.33 229.881 250.711C229.692 249.093 229.619 247.77 229.712 247.756C229.804 247.743 230.032 249.053 230.223 250.671C230.413 252.29 230.486 253.613 230.394 253.626Z" fill="white"/>
<path d="M274.957 252.494C274.865 252.475 275.055 251.198 275.382 249.646C275.711 248.093 276.052 246.848 276.144 246.867C276.236 246.888 276.045 248.164 275.717 249.717C275.388 251.27 275.047 252.514 274.957 252.494Z" fill="white"/>
<path d="M283.497 122.019L289.256 111.834C286.704 107.682 285.234 102.799 285.234 97.568C285.234 82.5197 297.398 70.3203 312.401 70.3203C327.404 70.3203 339.566 82.5197 339.566 97.568C339.566 112.617 327.404 124.816 312.401 124.816C306.135 124.816 300.369 122.684 295.778 119.111L295.784 119.124L283.497 122.019Z" fill="#FAFAFA"/>
<path d="M283.497 122.02C284.081 121.888 287.971 120.993 295.803 119.197L295.928 119.17L295.849 119.065L295.843 119.052L295.725 119.17C297.273 120.375 299.129 121.559 301.313 122.553C303.499 123.526 306.005 124.316 308.766 124.685C310.144 124.862 311.587 124.974 313.069 124.902C313.81 124.862 314.566 124.842 315.326 124.777C316.08 124.665 316.848 124.546 317.622 124.428C320.698 123.816 323.841 122.645 326.78 120.822C329.711 118.999 332.428 116.532 334.606 113.499C336.777 110.465 338.424 106.872 339.197 102.971C339.959 99.0685 339.9 94.8902 338.877 90.8435C337.847 86.81 335.925 82.8752 333.05 79.6378L331.943 78.414C331.574 77.9995 331.143 77.6638 330.749 77.2822C330.335 76.9268 329.962 76.519 329.514 76.203L328.21 75.2227C327.789 74.8805 327.324 74.6041 326.858 74.3277C326.399 74.0448 325.94 73.7684 325.48 73.4855C324.996 73.2487 324.517 73.0184 324.037 72.7814C323.552 72.5578 323.087 72.2946 322.582 72.1301C318.632 70.5574 314.427 69.9587 310.399 70.2548C306.371 70.5442 302.521 71.7024 299.222 73.571C295.908 75.4201 293.114 77.8941 290.956 80.6512C288.791 83.4148 287.269 86.4548 286.325 89.4881C285.387 92.5346 285.13 95.5549 285.144 98.3514C285.222 101.154 285.734 103.74 286.476 106.004C287.217 108.274 288.194 110.228 289.197 111.867V111.788C285.557 118.328 283.779 121.519 283.497 122.02C283.785 121.519 285.603 118.355 289.329 111.873L289.355 111.834L289.329 111.794C288.339 110.156 287.38 108.208 286.652 105.951C285.931 103.694 285.431 101.135 285.366 98.3514C285.366 95.5746 285.628 92.5872 286.568 89.5736C287.512 86.5732 289.028 83.5661 291.172 80.8354C293.311 78.1112 296.079 75.6701 299.36 73.8474C302.626 72.005 306.436 70.8667 310.412 70.5838C314.388 70.3009 318.548 70.8931 322.444 72.4459C322.942 72.6039 323.401 72.8671 323.88 73.0907C324.353 73.321 324.831 73.5513 325.304 73.7883C325.756 74.0645 326.209 74.3409 326.669 74.6173C327.127 74.8937 327.586 75.1634 328 75.5056L329.286 76.4729C329.726 76.7822 330.092 77.1835 330.498 77.5389C330.886 77.9138 331.319 78.2495 331.679 78.6575L332.776 79.8681C335.615 83.0661 337.512 86.9548 338.529 90.9357C339.539 94.9298 339.605 99.062 338.856 102.918C338.096 106.774 336.475 110.333 334.33 113.327C332.186 116.334 329.502 118.782 326.602 120.585C323.702 122.401 320.593 123.566 317.549 124.178C316.783 124.296 316.021 124.415 315.28 124.527C314.526 124.592 313.778 124.612 313.05 124.658C311.58 124.737 310.15 124.625 308.785 124.454C306.043 124.099 303.557 123.322 301.386 122.368C299.215 121.395 297.365 120.23 295.817 119.045L295.311 118.657L295.698 119.164L295.705 119.177L295.751 119.045C287.958 120.934 284.081 121.881 283.497 122.02Z" fill="#263238"/>
<path d="M319.735 96.4296C319.735 97.8969 320.922 99.0945 322.392 99.0945C323.861 99.0945 325.048 97.9035 325.048 96.4296C325.048 94.9622 323.861 93.7646 322.392 93.7646C320.922 93.7646 319.735 94.9622 319.735 96.4296Z" fill="#263238"/>
<path d="M309.114 96.4296C309.114 97.8969 310.301 99.0945 311.771 99.0945C313.241 99.0945 314.428 97.9035 314.428 96.4296C314.428 94.9622 313.241 93.7646 311.771 93.7646C310.301 93.7646 309.114 94.9622 309.114 96.4296Z" fill="#263238"/>
<path d="M298.519 95.1021C297.785 96.3786 298.223 98.0039 299.49 98.7408C300.763 99.4778 302.383 99.0369 303.118 97.767C303.853 96.4905 303.413 94.8652 302.147 94.1283C300.874 93.3913 299.247 93.8256 298.519 95.1021Z" fill="#263238"/>
<g opacity="0.3">
<path opacity="0.3" d="M458.6 257.479H428.516V294.241H458.6V257.479Z" fill="black"/>
</g>
<defs>
<linearGradient id="paint0_linear_808:2975" x1="120.62" y1="260.657" x2="193.626" y2="262.241" gradientUnits="userSpaceOnUse">
<stop stop-color="#3C51A2"/>
<stop offset="0.239583" stop-color="#455A64"/>
<stop offset="0.53125" stop-color="#3BBAC8"/>
<stop offset="0.796875" stop-color="#5ABB7F"/>
<stop offset="1" stop-color="#9BC53E"/>
</linearGradient>
<linearGradient id="paint1_linear_808:2975" x1="192.411" y1="258.627" x2="192.411" y2="265.798" gradientUnits="userSpaceOnUse">
<stop stop-color="#9BC53E"/>
<stop offset="1" stop-color="#9BC53E" stop-opacity="0"/>
</linearGradient>
<linearGradient id="paint2_linear_808:2975" x1="306.31" y1="241.585" x2="271.308" y2="155.794" gradientUnits="userSpaceOnUse">
<stop stop-color="#3C51A2"/>
<stop offset="0.182292" stop-color="#2475B7"/>
<stop offset="0.447917" stop-color="#3BBAC8"/>
<stop offset="0.755208" stop-color="#5ABB7F"/>
<stop offset="1" stop-color="#9BC53E"/>
</linearGradient>
<linearGradient id="paint3_linear_808:2975" x1="239.652" y1="259.068" x2="239.652" y2="152.58" gradientUnits="userSpaceOnUse">
<stop stop-color="#3C51A2"/>
<stop offset="0.307292" stop-color="#2475B7"/>
<stop offset="0.536458" stop-color="#3BBAC8"/>
<stop offset="0.786458" stop-color="#5ABB7F"/>
<stop offset="1" stop-color="#9BC53E"/>
</linearGradient>
<linearGradient id="paint4_linear_808:2975" x1="161.884" y1="246.353" x2="206.425" y2="157.399" gradientUnits="userSpaceOnUse">
<stop stop-color="#3C51A2"/>
<stop offset="0.260417" stop-color="#2475B7"/>
<stop offset="0.526042" stop-color="#3BBAC8"/>
<stop offset="0.78125" stop-color="#5ABB7F"/>
<stop offset="1" stop-color="#9BC53E"/>
</linearGradient>
</defs>
</svg>
